<?xml version="1.0" standalone="no"?>
<!DOCTYPE svg PUBLIC "-//W3C//DTD SVG 20010904//EN"
 "http://www.w3.org/TR/2001/REC-SVG-20010904/DTD/svg10.dtd">
<svg version="1.0" xmlns="http://www.w3.org/2000/svg"
 width="2816.000000pt" height="1536.000000pt" viewBox="0 0 2816.000000 1536.000000"
 preserveAspectRatio="xMidYMid meet">

<g transform="translate(0.000000,1536.000000) scale(0.100000,-0.100000)"
fill="#000000" stroke="none">
<path d="M0 7680 l0 -7680 14080 0 14080 0 0 7680 0 7680 -14080 0 -14080 0 0
-7680z m13768 4974 c-4 -3 -42 -7 -85 -9 -147 -6 -320 -30 -333 -45 -3 -4 -16
-4 -30 0 -50 13 231 56 379 59 41 0 72 -2 69 -5z m26 -10 c3 -8 2 -12 -4 -9
-6 3 -10 10 -10 16 0 14 7 11 14 -7z m112 -1 c-7 -7 -77 -5 -85 3 -2 2 17 4
44 4 27 0 45 -3 41 -7z m74 -12 c0 -4 -11 -6 -25 -3 -14 2 -25 6 -25 8 0 2 11
4 25 4 14 0 25 -4 25 -9z m43 -8 c-7 -2 -19 -2 -25 0 -7 3 -2 5 12 5 14 0 19
-2 13 -5z m166 -38 c112 -32 254 -85 324 -122 46 -23 25 -25 -24 -2 -112 55
-210 90 -369 134 -47 13 -77 24 -68 24 9 1 71 -15 137 -34z m-1019 -29 c-206
-70 -368 -156 -536 -282 -46 -35 -84 -60 -84 -56 1 10 154 123 233 171 116 70
245 131 366 172 64 21 123 38 131 38 8 0 -41 -19 -110 -43z m2557 8 c61 -21
125 -67 157 -113 46 -66 57 -106 57 -209 0 -118 -19 -185 -100 -356 -153 -321
-369 -618 -693 -952 -71 -73 -128 -136 -128 -141 0 -5 6 -15 13 -22 8 -10 9
-12 0 -7 -18 10 -63 -4 -63 -19 0 -7 -6 -16 -12 -18 -8 -3 -6 -6 5 -6 9 -1 17
-5 17 -11 0 -5 -7 -6 -17 -3 -11 4 -14 3 -9 -6 4 -6 5 -20 1 -29 -6 -14 -8
-13 -17 8 -7 20 -11 22 -18 10 -6 -9 -5 -17 3 -22 6 -4 8 -10 4 -14 -3 -4 -13
-2 -20 4 -10 9 -19 8 -34 -3 -12 -8 -29 -12 -37 -9 -12 5 -15 2 -10 -10 4 -10
0 -18 -10 -22 -9 -3 -16 -10 -16 -15 0 -11 38 7 58 28 7 7 19 13 25 13 13 -1
3 -10 -91 -82 -40 -31 -62 -55 -62 -68 0 -14 -7 -20 -22 -21 -22 -1 -22 -1 2
-9 27 -9 27 -9 -9 -16 -14 -2 -25 -5 -26 -7 -1 -1 -14 -33 -29 -72 -16 -42
-24 -56 -20 -35 7 42 58 201 74 230 11 21 44 27 55 10 7 -11 35 -2 35 12 0 5
-8 7 -19 3 -15 -5 -18 -1 -13 20 2 15 11 25 21 25 9 0 28 13 41 30 14 16 28
29 33 30 4 0 16 9 26 19 19 19 19 20 1 26 -28 9 -70 45 -70 60 0 7 38 58 85
113 47 55 85 105 85 110 0 5 7 12 15 16 8 3 20 17 27 31 6 14 15 25 20 25 14
0 87 76 159 165 35 44 70 86 78 94 25 28 121 158 121 166 0 9 -123 255 -158
314 -19 33 -22 43 -10 39 18 -7 292 -94 323 -102 21 -6 23 -3 102 142 19 34
33 62 31 63 -2 0 -10 2 -18 4 -8 2 -85 21 -170 44 -85 22 -235 56 -333 76
-180 36 -243 53 -202 54 11 0 52 -6 90 -14 39 -9 135 -29 215 -45 135 -28 375
-89 410 -104 12 -5 20 6 34 41 65 170 61 311 -9 357 -107 70 -474 18 -773
-110 -62 -27 -86 -34 -95 -25 -6 6 -17 11 -23 11 -7 0 -28 14 -46 30 -33 31
-84 65 -171 114 -27 15 -46 30 -44 33 3 2 40 -17 82 -42 l77 -47 117 55 c215
101 479 176 671 190 57 3 175 -11 227 -29z m-1497 -151 c122 -46 275 -122 367
-185 82 -55 232 -179 278 -229 l30 -33 -30 19 c-16 10 -51 35 -76 57 -26 21
-52 38 -58 38 -6 0 -11 4 -11 8 0 4 -22 25 -50 45 -27 21 -50 32 -50 26 0 -7
-3 -9 -7 -5 -5 4 -8 13 -8 19 0 6 -22 25 -48 41 -39 24 -50 27 -57 16 -6 -10
-9 -7 -12 11 -1 13 -10 24 -18 24 -8 0 -19 6 -23 13 -5 7 -13 10 -18 6 -6 -4
-6 -11 2 -20 10 -12 9 -13 -4 -8 -9 3 -19 15 -22 25 -9 26 -44 47 -79 47 -16
0 -33 6 -38 16 -5 9 -16 16 -23 16 -8 0 -15 5 -15 11 0 7 -9 9 -21 6 -13 -4
-26 1 -37 14 -17 20 -38 27 -27 9 8 -13 10 -13 -49 5 -48 15 -69 13 -50 -3 5
-5 41 -21 80 -36 151 -57 341 -167 488 -283 91 -72 92 -73 79 -73 -6 0 -49 28
-95 62 -135 100 -284 188 -423 248 -133 58 -150 72 -170 137 l-6 22 53 -15
c29 -9 96 -32 148 -51z m-1009 -59 c-17 -14 -31 -29 -31 -33 0 -4 80 -27 178
-50 97 -24 184 -45 192 -47 10 -4 5 -11 -15 -24 -34 -22 -45 -25 -45 -10 0 6
7 10 16 10 8 0 12 5 9 11 -4 6 -13 8 -21 5 -7 -3 -16 -1 -19 4 -9 15 -22 12
-22 -5 0 -8 7 -15 15 -15 9 0 13 -2 10 -5 -3 -3 -23 -1 -44 4 -23 5 -30 9 -17
10 15 1 21 6 17 16 -4 10 -16 13 -40 10 -19 -2 -32 0 -30 4 6 9 -73 34 -103
34 -9 0 -18 3 -21 7 -8 12 -45 16 -47 5 -2 -6 18 -18 45 -27 58 -22 12 -15
-73 10 l-59 18 45 31 c25 17 51 38 58 47 8 9 18 16 23 16 5 0 -4 -12 -21 -26z
m-181 -22 c0 -15 -48 -54 -59 -48 -5 4 -13 1 -17 -5 -5 -8 -3 -9 6 -4 9 5 11
4 6 -4 -4 -7 -47 -37 -94 -68 -137 -88 -264 -196 -374 -316 -55 -62 -112 -123
-126 -137 -22 -22 -23 -23 -13 -3 23 46 163 225 223 286 76 77 139 124 306
227 129 80 142 87 142 72z m1114 -101 c123 -50 196 -91 327 -184 l105 -75 17
-105 c19 -115 24 -393 7 -367 -5 8 -10 44 -10 80 0 36 -3 89 -7 119 -6 53 -6
53 -19 25 -8 -19 -13 -23 -13 -11 -1 9 -6 17 -12 17 -6 0 -9 -7 -6 -15 4 -8 2
-17 -3 -20 -5 -3 -7 -12 -3 -20 3 -10 -2 -15 -16 -15 -14 0 -21 -6 -21 -20 0
-13 -7 -20 -19 -20 -12 0 -18 -7 -17 -17 1 -12 -5 -17 -16 -15 -13 2 -18 -4
-18 -22 0 -20 -4 -23 -21 -19 -18 5 -20 3 -14 -17 6 -19 4 -21 -14 -15 -18 5
-21 2 -21 -21 0 -22 -2 -25 -15 -14 -13 11 -15 8 -15 -14 0 -23 -3 -26 -20
-21 -16 5 -20 2 -20 -19 0 -18 -6 -25 -22 -28 -13 -2 -23 -9 -23 -16 0 -7 -7
-17 -15 -22 -24 -15 10 -13 51 3 19 8 56 22 82 31 39 15 46 20 36 32 -9 11 -8
14 7 13 47 -5 56 0 52 26 -4 19 -1 25 13 25 11 0 19 7 19 16 0 11 6 14 21 9
19 -6 21 -4 17 20 -5 24 -3 26 20 20 21 -5 24 -3 19 14 -3 13 0 18 7 15 7 -3
12 -18 12 -34 0 -23 -4 -30 -19 -30 -10 0 -17 -5 -14 -12 2 -7 11 -13 20 -13
8 0 19 -4 24 -9 4 -5 3 -6 -4 -2 -7 4 -13 3 -13 -3 0 -11 -99 -58 -112 -53 -5
1 -8 -3 -8 -9 0 -5 -4 -8 -9 -5 -4 3 -17 -1 -27 -9 -10 -8 -26 -15 -34 -15 -9
0 -34 -9 -55 -20 -22 -12 -47 -22 -55 -24 -8 -1 -33 -10 -55 -20 -107 -48
-152 -56 -152 -31 0 9 6 14 14 11 10 -4 12 1 7 19 -5 22 -2 26 23 31 26 5 29
10 25 31 -4 24 -3 25 22 19 25 -6 26 -5 20 19 -6 24 -4 25 20 19 23 -5 26 -3
24 17 -2 17 2 23 13 21 11 -1 19 7 23 23 4 16 13 25 26 25 12 0 20 7 20 16 0
11 6 14 21 9 20 -7 21 -4 15 20 -7 26 -5 27 19 21 23 -6 26 -4 20 14 -5 15 -2
20 13 20 15 0 19 5 15 20 -4 16 -2 19 12 14 15 -6 17 -3 13 19 -5 24 -3 26 18
21 19 -5 22 -3 17 16 -5 19 -3 21 16 15 15 -4 21 -2 21 9 0 9 6 13 14 10 11
-4 13 0 9 15 -4 15 -1 21 11 21 9 0 16 7 16 15 0 8 5 15 11 15 7 0 9 13 5 38
-15 88 -17 91 -34 85 -14 -6 -15 -4 -5 9 11 13 -2 25 -90 84 -132 90 -179 117
-278 159 -93 40 -129 45 -129 16 0 -14 -5 -18 -20 -14 -14 4 -20 0 -20 -12 0
-11 -5 -15 -15 -11 -11 4 -15 -2 -15 -21 0 -21 -3 -24 -12 -15 -20 20 -31 14
-24 -14 6 -24 5 -26 -18 -20 -24 6 -25 5 -19 -31 5 -31 3 -36 -8 -25 -18 17
-30 15 -23 -3 4 -9 0 -15 -10 -15 -10 0 -16 -8 -16 -21 0 -16 -4 -19 -20 -14
-15 5 -18 3 -14 -9 5 -14 20 -18 52 -15 4 0 6 9 5 20 -4 27 6 23 19 -8 11 -27
12 -27 15 -5 3 12 11 22 19 22 8 0 14 7 14 15 0 8 7 15 15 15 9 0 12 6 9 15
-4 10 0 15 15 15 14 0 21 6 21 20 0 17 4 19 26 14 24 -6 26 -5 19 16 -6 20 -4
22 14 17 16 -4 21 -1 21 15 0 15 4 18 22 13 17 -6 20 -4 15 9 -4 10 -1 16 7
16 8 0 16 6 19 13 6 17 30 -6 32 -33 2 -21 -10 -27 -20 -10 -14 22 -26 9 -20
-21 5 -22 4 -29 -4 -25 -6 4 -9 12 -6 17 4 5 0 9 -8 9 -9 0 -13 -10 -10 -32 2
-18 0 -27 -3 -20 -8 18 -27 15 -20 -4 9 -23 -3 -37 -20 -23 -12 9 -14 5 -14
-30 0 -42 -7 -50 -28 -29 -9 9 -12 6 -12 -16 0 -20 -4 -27 -14 -23 -22 9 -29
-54 -8 -71 15 -11 17 -10 20 8 3 16 9 21 23 17 15 -4 19 0 19 19 0 17 6 24 20
24 13 0 18 5 13 16 -4 12 0 14 20 9 23 -6 25 -4 20 16 -5 18 -3 21 10 16 13
-5 17 -1 17 14 0 16 4 19 22 14 17 -6 20 -4 15 9 -5 11 -1 16 14 16 15 0 19 5
14 19 -4 15 -1 18 19 14 21 -4 24 -2 19 15 -5 21 2 23 45 8 12 -4 22 -14 22
-21 0 -9 -6 -12 -15 -9 -11 5 -15 -1 -15 -20 0 -23 -3 -26 -24 -20 -21 5 -23
3 -18 -21 4 -25 3 -27 -18 -20 -21 7 -22 5 -18 -20 5 -22 3 -26 -13 -22 -15 4
-19 0 -19 -20 0 -22 -2 -24 -15 -13 -16 13 -19 6 -15 -33 1 -10 -4 -16 -12
-15 -8 2 -13 -6 -12 -20 0 -17 -4 -21 -18 -16 -14 4 -18 0 -18 -21 0 -23 -2
-25 -21 -14 -20 10 -21 9 -14 -19 6 -28 4 -30 -15 -25 -19 5 -21 2 -18 -23 3
-28 14 -44 31 -44 4 0 4 12 1 26 -6 24 -5 25 15 15 17 -10 21 -9 21 3 0 8 -5
16 -11 18 -7 2 -5 9 5 17 11 9 16 10 16 2 0 -6 7 -11 15 -11 12 0 14 7 9 27
-6 23 -4 25 15 20 16 -4 21 -1 21 15 0 16 5 19 26 15 23 -4 25 -2 20 19 -6 22
-4 24 19 18 24 -6 25 -4 19 20 -6 25 -5 27 19 21 22 -6 27 -3 33 19 3 14 10
23 16 20 5 -3 12 3 15 15 3 11 9 19 13 16 4 -3 10 2 14 10 3 8 12 12 21 9 10
-4 15 0 15 11 0 24 54 16 58 -9 3 -13 0 -17 -11 -13 -11 4 -13 0 -9 -15 4 -17
2 -19 -18 -13 -21 7 -22 5 -18 -20 5 -24 3 -26 -19 -20 -24 6 -25 4 -21 -24 4
-28 2 -30 -20 -24 -21 5 -23 3 -17 -16 9 -30 -2 -43 -26 -31 -16 9 -19 7 -19
-14 0 -20 -4 -23 -21 -19 -19 5 -21 3 -17 -21 5 -23 3 -26 -15 -20 -17 5 -19
3 -14 -15 4 -16 1 -21 -14 -21 -12 0 -19 -7 -19 -19 0 -12 -7 -18 -17 -17 -14
1 -17 -5 -15 -29 3 -24 2 -27 -10 -17 -18 14 -28 6 -28 -21 0 -14 -5 -18 -20
-14 -16 4 -20 0 -20 -20 0 -20 -4 -24 -20 -20 -16 4 -20 0 -20 -20 0 -20 -4
-24 -20 -20 -16 4 -20 0 -20 -20 0 -20 -4 -23 -20 -18 -17 5 -20 2 -20 -20 0
-18 -4 -24 -12 -18 -7 4 -17 8 -23 8 -19 0 -75 39 -75 53 0 10 5 10 20 2 17
-9 20 -8 20 11 0 16 5 20 20 16 21 -5 29 16 10 28 -5 3 -10 1 -10 -5 0 -7 -7
-10 -15 -6 -8 3 -19 -2 -24 -11 -8 -15 -11 -15 -27 -3 -16 14 -17 13 -12 -7 4
-13 4 -23 1 -23 -3 0 -33 17 -67 38 -74 47 -106 64 -106 58 0 -3 10 -15 23
-27 l22 -21 -43 21 c-24 12 -49 20 -55 18 -7 -3 1 -10 17 -16 16 -7 50 -27 75
-45 25 -18 66 -44 91 -58 25 -15 54 -34 65 -43 19 -16 19 -17 -5 -3 -14 8 -79
47 -146 86 -66 40 -126 72 -133 72 -8 0 -10 11 -7 33 3 17 8 120 11 227 3 107
9 204 11 216 4 17 35 32 147 75 107 40 276 97 354 119 1 0 44 -18 97 -39z
m-809 -1 c13 -5 14 -9 5 -9 -8 0 -24 4 -35 9 -13 5 -14 9 -5 9 8 0 24 -4 35
-9z m52 -16 c-3 -3 -12 -4 -19 -1 -8 3 -5 6 6 6 11 1 17 -2 13 -5z m-907 -54
c0 -5 -5 -10 -11 -10 -5 0 -7 5 -4 10 3 6 8 10 11 10 2 0 4 -4 4 -10z m635 -5
c64 -10 299 -67 307 -74 4 -3 2 -111 -4 -239 l-12 -233 -141 -123 c-77 -68
-183 -160 -235 -206 l-95 -83 98 98 c53 54 97 101 97 104 0 4 16 22 35 41 19
19 35 43 35 53 0 9 6 16 13 15 7 -2 12 7 11 20 0 17 4 21 18 16 12 -3 18 0 18
9 0 9 3 17 8 20 4 2 2 2 -5 1 -6 -2 -14 7 -16 19 -3 17 -5 16 -6 -7 -1 -28 -1
-29 -21 -11 -19 18 -20 17 -20 -5 0 -17 -4 -21 -20 -17 -16 4 -20 0 -20 -20 0
-20 -4 -23 -20 -18 -15 5 -18 2 -15 -16 4 -18 1 -20 -18 -15 -28 9 -50 14 -59
15 -5 1 -8 8 -8 17 0 11 6 14 21 9 20 -7 21 -4 15 20 -6 24 -5 27 13 22 17 -4
21 0 21 20 0 19 4 23 19 18 16 -5 18 -2 14 16 -5 19 -3 21 15 17 17 -5 22 -2
22 13 0 10 5 19 10 19 6 0 10 7 10 15 0 9 6 12 15 9 10 -4 15 0 15 15 0 12 6
21 15 21 8 0 15 9 15 21 0 11 5 17 10 14 6 -3 18 1 27 10 14 14 14 18 2 26
-12 7 -11 9 2 9 11 0 18 11 21 30 3 17 3 30 2 30 -1 0 -9 3 -18 6 -11 4 -14 0
-11 -16 3 -18 1 -21 -15 -17 -15 4 -20 0 -20 -14 0 -22 -11 -24 -28 -7 -9 9
-12 6 -12 -15 0 -24 -3 -26 -19 -18 -16 9 -17 7 -13 -14 5 -27 -7 -32 -26 -13
-8 8 -10 5 -6 -17 4 -25 3 -27 -21 -21 -23 6 -25 4 -19 -19 7 -27 2 -30 -25
-16 -15 8 -16 5 -13 -25 4 -33 3 -35 -21 -29 -22 6 -24 4 -20 -19 5 -26 -10
-36 -22 -16 -11 18 -27 10 -22 -11 3 -13 1 -19 -6 -16 -7 2 -12 20 -13 40 -2
35 0 36 25 31 21 -5 24 -4 14 7 -18 18 -16 39 2 39 8 0 15 -4 15 -10 0 -5 4
-10 9 -10 4 0 7 14 5 30 -3 24 0 30 16 30 14 0 20 7 20 21 0 16 4 19 21 14 19
-6 21 -4 16 14 -3 11 -1 22 4 22 5 1 15 2 22 3 6 0 12 10 12 21 0 13 7 19 18
19 9 -1 14 2 11 7 -3 5 2 12 10 15 9 3 16 10 16 16 0 13 26 38 39 38 6 0 11 9
11 21 0 15 5 19 15 15 11 -4 15 1 15 19 0 18 4 23 15 19 9 -4 15 0 15 10 0 10
6 13 15 10 11 -4 15 1 15 17 0 19 2 21 10 9 8 -13 10 -13 10 2 0 20 -29 38
-59 38 -15 0 -21 -6 -21 -21 0 -19 -4 -21 -30 -15 -18 3 -29 2 -25 -4 3 -5 3
-20 -1 -34 -5 -22 -9 -24 -26 -15 -19 10 -20 9 -14 -15 5 -19 3 -26 -9 -26 -8
0 -15 -7 -15 -16 0 -11 -6 -14 -21 -9 -19 6 -21 4 -15 -19 6 -25 5 -26 -20
-20 -23 6 -25 4 -19 -15 8 -27 -6 -27 -36 0 -17 15 -19 19 -6 15 20 -6 22 2 4
18 -7 6 -10 10 -8 9 10 -6 29 20 24 33 -3 9 2 14 16 14 14 0 19 5 15 15 -5 11
2 14 31 11 37 -2 37 -2 15 14 l-23 17 22 6 c15 4 19 10 14 23 -5 14 -2 16 21
12 14 -3 29 -1 32 3 3 5 0 9 -6 9 -6 0 -8 5 -5 10 4 7 11 8 18 1 8 -6 16 -4
24 4 10 11 3 15 -37 25 -27 6 -59 11 -72 9 -13 -1 -36 3 -51 9 -38 16 -38 16
-110 -18 -161 -76 -384 -272 -465 -409 -23 -40 -26 -57 -32 -190 l-7 -146 -1
155 c-2 177 -5 169 101 298 64 78 175 179 270 244 73 50 197 109 217 104 8 -2
33 -7 55 -11z m4485 -39 c0 -3 -24 -12 -52 -21 -61 -20 -222 -80 -258 -97 -14
-6 -27 -12 -30 -13 -14 -5 -54 -21 -139 -56 -52 -22 -95 -38 -98 -36 -5 5 167
78 377 161 148 59 200 75 200 62z m-4500 -25 c0 -3 -11 -7 -25 -7 -14 -1 -25
4 -25 11 0 8 9 10 25 7 14 -2 25 -7 25 -11z m-33 -38 c2 -6 -7 -8 -22 -6 -14
3 -25 9 -25 14 0 12 43 5 47 -8z m1693 -9 c0 -2 -9 -4 -20 -4 -11 0 -20 4 -20
9 0 5 9 7 20 4 11 -3 20 -7 20 -9z m-1755 -4 c3 -5 1 -10 -4 -10 -6 0 -11 5
-11 10 0 6 2 10 4 10 3 0 8 -4 11 -10z m1499 -110 c16 -6 26 -17 26 -29 0 -14
-5 -19 -15 -15 -10 4 -15 0 -15 -16 0 -17 -4 -20 -21 -15 -19 6 -21 4 -17 -19
5 -25 4 -26 -29 -20 -33 6 -34 5 -22 -13 19 -31 4 -57 -27 -49 -23 6 -25 4
-22 -21 2 -23 -1 -28 -17 -25 -16 2 -20 -4 -22 -29 -3 -39 -8 -45 -28 -29 -13
11 -15 8 -15 -21 0 -26 -3 -30 -12 -21 -22 22 -35 13 -30 -18 4 -29 3 -31 -21
-25 -22 6 -24 4 -20 -19 5 -26 -10 -36 -22 -16 -11 18 -26 10 -25 -12 3 -36 1
-39 -20 -28 -18 10 -20 8 -20 -25 0 -34 -12 -46 -25 -25 -11 17 -24 1 -18 -21
5 -17 2 -20 -18 -17 -20 2 -23 -1 -21 -19 4 -29 -5 -29 -51 2 -40 28 -50 50
-17 40 16 -5 20 -2 20 14 0 12 5 21 10 21 6 0 10 6 10 14 0 9 7 12 19 9 16 -4
19 -1 14 18 -5 19 -3 21 15 17 18 -5 22 -2 22 19 0 21 4 24 21 20 14 -4 19 -2
15 8 -2 7 2 16 10 19 8 3 14 12 14 21 0 8 9 15 20 15 14 0 20 7 20 21 0 16 5
20 20 16 15 -4 20 0 20 14 0 10 7 19 15 19 8 0 15 7 15 16 0 10 6 14 14 11 20
-8 28 4 15 20 -9 10 -6 13 14 13 21 0 24 4 20 21 -5 18 -3 20 16 14 17 -5 21
-2 21 15 0 17 4 20 21 15 19 -6 21 -4 16 14 -4 16 -1 21 14 21 12 0 19 7 19
19 0 15 5 18 21 14 18 -5 20 -3 14 16 -5 15 -2 21 9 21 9 0 16 5 16 10 0 12 2
12 34 0z m1573 -86 c70 -30 186 -83 256 -116 125 -60 129 -61 165 -48 20 7 44
15 52 17 23 7 -15 -16 -54 -32 -31 -13 -36 -12 -90 16 -32 17 -76 37 -99 45
-23 8 -64 25 -92 38 -27 13 -102 45 -165 71 -63 26 -119 51 -124 56 -24 22 32
5 151 -47z m-3862 38 c-6 -5 -26 -15 -45 -22 -19 -8 -60 -24 -90 -38 -130 -57
-222 -93 -227 -89 -2 2 29 18 69 35 40 17 120 51 178 76 105 45 133 54 115 38z
m4734 -25 c-36 -18 -86 -40 -110 -51 -24 -10 -57 -25 -74 -32 -71 -31 -188
-74 -192 -71 -2 2 67 34 154 70 87 36 183 77 213 91 80 36 87 30 9 -7z m-2210
-254 c-1 -98 -5 -173 -10 -173 -5 0 -10 55 -10 123 -1 67 -3 156 -5 197 -2 41
0 84 3 95 13 38 22 -64 22 -242z m-1694 237 c3 -5 2 -10 -4 -10 -5 0 -13 5
-16 10 -3 6 -2 10 4 10 5 0 13 -4 16 -10z m-5 -30 c0 -5 -13 -4 -30 1 -16 6
-30 15 -30 19 0 5 14 4 30 -1 17 -6 30 -15 30 -19z m-77 -19 c-2 -6 0 -10 5
-10 20 3 42 -2 42 -10 0 -5 -10 -7 -21 -4 -20 5 -21 3 -15 -21 l7 -27 -31 16
c-31 16 -42 32 -15 22 20 -8 28 8 10 23 -20 17 -19 29 3 25 9 -1 16 -8 15 -14z
m4400 -9 c-3 -9 -30 -41 -58 -69 -29 -29 -50 -55 -48 -57 2 -2 -1 -7 -8 -12
-8 -5 -10 -3 -4 6 9 15 11 16 -83 -26 -57 -25 -63 -30 -57 -51 5 -22 3 -24
-22 -21 -25 3 -28 0 -25 -24 3 -24 0 -26 -22 -22 -23 4 -24 2 -19 -31 6 -40 4
-41 -37 -20 -35 18 -41 55 -10 55 12 0 17 5 14 14 -3 8 7 18 26 26 17 7 29 15
27 17 -4 4 -181 -66 -250 -98 -27 -12 -28 -13 -8 -21 31 -11 26 -30 -6 -26
-17 2 -27 8 -25 17 2 8 -3 11 -10 8 -7 -3 -96 -41 -198 -85 -207 -89 -325
-138 -417 -172 -35 -12 -63 -24 -63 -26 0 -2 57 -42 128 -89 111 -75 127 -83
130 -65 2 11 10 20 17 20 8 0 17 9 20 21 4 12 12 18 21 15 9 -3 14 1 14 14 0
12 7 20 16 20 11 0 14 5 10 17 -4 9 -1 20 6 24 9 6 7 14 -8 31 -35 38 -39 76
-11 104 13 12 35 28 50 33 25 10 27 8 27 -13 0 -15 -7 -26 -20 -29 -11 -3 -20
-11 -19 -19 0 -10 2 -10 6 0 2 6 9 12 15 12 6 0 8 -7 4 -15 -3 -8 -1 -15 4
-15 6 0 10 9 10 20 0 17 5 19 25 14 21 -5 25 -3 25 15 0 16 6 21 25 21 16 0
25 6 25 16 0 9 9 18 20 21 11 3 20 12 20 19 0 19 6 18 35 -8 14 -12 25 -32 25
-45 0 -25 -18 -30 -39 -10 -11 10 -12 6 -6 -21 6 -31 5 -33 -17 -30 -20 3 -24
-3 -33 -37 -8 -33 -14 -39 -32 -37 -19 3 -23 -2 -23 -22 0 -21 -5 -26 -25 -26
-15 0 -24 -5 -22 -12 1 -7 -6 -12 -16 -12 -13 2 -17 -4 -15 -20 2 -15 -2 -21
-15 -19 -11 0 -16 -4 -13 -12 4 -12 -9 -32 -68 -95 -85 -92 -137 -161 -130
-171 4 -7 3 -9 -4 -6 -13 9 -64 -51 -56 -65 4 -6 2 -8 -3 -5 -16 10 -34 -18
-27 -39 4 -13 3 -15 -3 -7 -7 10 -18 4 -43 -22 -27 -28 -32 -38 -21 -44 9 -6
10 -11 2 -15 -6 -4 -11 -2 -11 5 0 7 -8 5 -20 -6 -15 -14 -17 -21 -8 -26 9 -6
9 -11 -1 -23 -18 -22 -37 -20 -20 2 12 15 11 15 -8 -1 -12 -11 -19 -25 -16
-33 7 -20 -5 -47 -17 -39 -8 5 -7 12 1 23 6 10 -12 -7 -40 -37 -27 -30 -48
-59 -44 -64 3 -6 1 -7 -5 -3 -16 10 -25 -13 -12 -29 8 -9 8 -15 2 -15 -6 0
-12 5 -14 12 -2 6 -38 -29 -79 -77 -100 -120 -298 -350 -346 -404 l-39 -44
-39 14 c-22 7 -42 15 -44 16 -3 2 13 22 36 46 22 23 146 170 276 327 129 157
317 383 417 504 99 120 179 223 178 230 -2 6 -81 62 -175 125 l-171 114 141
57 c225 91 1123 463 1262 523 84 36 98 38 88 9z m-5528 -62 c-3 -5 -10 -10
-14 -10 -16 0 -405 -188 -544 -263 -49 -26 -91 -46 -94 -43 -5 5 245 136 412
215 72 33 153 72 180 86 54 27 70 30 60 15z m5512 -27 c-3 -10 -5 -4 -5 12 0
17 2 24 5 18 2 -7 2 -21 0 -30z m-1277 -108 l115 -43 -45 -12 c-25 -7 -105
-36 -178 -66 l-133 -54 -73 16 -73 16 68 111 c38 61 69 114 69 118 0 5 30 -3
68 -17 37 -14 119 -45 182 -69z m1244 -132 c-16 -109 -30 -191 -32 -181 -2 9
8 94 22 190 15 96 26 180 26 188 0 7 3 11 6 7 4 -3 -6 -95 -22 -204z m-4957
140 c0 -21 -2 -30 -4 -20 -6 25 -19 21 -42 -15 -11 -18 -21 -27 -21 -20 0 11
58 92 66 92 1 0 2 -17 1 -37z m599 1 c1 -9 0 -13 -4 -10 -3 4 -7 14 -8 22 -1
9 0 13 4 10 3 -4 7 -14 8 -22z m4244 11 c0 5 3 6 6 2 6 -5 -122 -167 -132
-167 -7 0 -4 8 9 22 62 66 99 123 65 102 -7 -4 -8 -3 -4 4 4 6 14 8 23 5 13
-5 15 -2 9 22 -6 25 -5 27 8 16 9 -8 16 -10 16 -6z m-5163 -37 c-3 -7 -18 -40
-32 -73 -17 -38 -25 -49 -21 -30 2 17 8 38 12 48 4 13 -106 -38 -349 -160
-196 -97 -360 -174 -364 -169 -4 5 -3 11 2 13 6 2 177 89 380 192 204 103 372
189 374 190 2 0 1 -5 -2 -11z m928 -19 c11 -17 -1 -21 -15 -4 -8 9 -8 15 -2
15 6 0 14 -5 17 -11z m-637 -228 c0 -88 -2 -98 -8 -56 -5 28 -8 102 -8 165 1
98 2 106 8 56 4 -32 8 -107 8 -165z m29 187 c-3 -8 -6 -5 -6 6 -1 11 2 17 5
13 3 -3 4 -12 1 -19z m727 -45 c3 -7 -1 -13 -8 -13 -8 0 -17 8 -20 17 -6 15
-8 15 -17 3 -8 -13 -10 -13 -19 0 -5 8 -10 18 -10 22 0 11 69 -15 74 -29z
m554 -69 c66 -40 109 -71 103 -77 -5 -5 -27 3 -52 19 -24 15 -70 41 -101 57
-32 16 -58 33 -58 38 0 19 -33 8 -71 -23 -22 -18 -65 -57 -97 -85 -31 -29 -63
-53 -70 -53 -7 0 -10 -5 -6 -12 4 -7 3 -8 -5 -4 -6 4 -20 2 -29 -5 -9 -7 -3 2
13 21 l30 34 -40 -29 c-59 -42 -95 -77 -89 -87 3 -5 0 -7 -8 -6 -7 2 -14 -7
-16 -20 -2 -16 -8 -22 -19 -18 -24 10 -93 -51 -94 -82 -1 -26 -1 -26 -11 5
-10 30 -8 35 18 55 16 13 92 79 169 147 77 68 171 146 209 172 64 45 71 48 90
35 12 -8 72 -45 134 -82z m3328 52 c3 -8 4 -25 2 -38 -3 -21 -4 -21 -21 11
-21 41 -21 41 -2 41 9 0 18 -6 21 -14z m-3923 -10 c3 -8 -2 -20 -11 -28 -12
-10 -14 -10 -8 0 4 7 2 19 -4 27 -10 12 -9 15 3 15 8 0 17 -6 20 -14z m3890
-43 c-7 -3 -13 -16 -13 -30 0 -22 -4 -25 -25 -21 -22 5 -25 2 -25 -23 0 -22
-5 -29 -20 -29 -11 0 -19 -3 -19 -7 5 -31 -2 -44 -21 -38 -16 5 -20 2 -20 -19
0 -18 -4 -24 -15 -20 -11 5 -15 -1 -15 -21 0 -24 -3 -27 -25 -23 -21 4 -25 1
-25 -18 0 -38 -11 -54 -36 -54 -21 0 -24 -4 -19 -29 4 -26 3 -28 -20 -23 -22
4 -25 1 -25 -27 0 -28 -2 -31 -19 -21 -29 15 -31 13 -31 -25 0 -24 -5 -35 -15
-35 -8 0 -15 5 -15 10 0 6 -4 10 -10 10 -5 0 -7 -13 -3 -30 6 -33 -3 -38 -33
-15 -27 20 -37 19 -24 -4 5 -11 10 -30 9 -43 0 -20 -1 -20 -8 -5 -4 10 -9 17
-12 15 -3 -2 -14 4 -25 12 -17 13 -18 13 -8 0 6 -8 12 -32 13 -53 2 -36 0 -37
-19 -27 -11 6 -20 7 -19 3 1 -4 1 -19 0 -32 -1 -20 -3 -21 -16 -11 -13 11 -15
8 -15 -14 0 -14 -5 -26 -11 -26 -6 0 -9 -7 -5 -15 3 -8 2 -15 -3 -15 -12 0
-32 26 -25 32 3 3 1 9 -5 13 -12 7 -14 -4 -11 -47 1 -14 -3 -29 -9 -33 -6 -3
-11 -1 -11 5 0 7 -6 10 -12 7 -8 -2 -12 -16 -10 -35 4 -36 -4 -41 -24 -14 -13
16 -13 16 -14 -1 0 -10 -4 -15 -10 -12 -6 4 -6 -3 0 -21 11 -28 7 -39 -13 -39
-7 0 -13 -10 -15 -23 -2 -12 -12 -27 -23 -33 -11 -5 -17 -14 -14 -19 4 -6 -1
-7 -11 -3 -13 5 -16 3 -11 -9 3 -9 -1 -24 -8 -35 -9 -11 -14 -13 -15 -5 0 7
-5 10 -10 7 -6 -4 -8 -15 -5 -25 4 -14 -1 -20 -25 -25 -26 -6 -30 -11 -30 -40
0 -36 -15 -48 -42 -34 -15 8 -16 4 -11 -28 6 -35 5 -37 -10 -24 -15 12 -17 11
-17 -3 0 -21 -14 -20 -31 1 -12 15 -12 16 4 10 11 -4 16 -3 12 3 -4 6 -13 9
-22 8 -8 -2 -19 7 -24 20 -7 19 -5 22 17 22 21 0 24 4 19 20 -5 17 -2 20 25
20 27 0 30 3 25 20 -5 16 -2 20 15 20 19 0 22 4 18 30 -4 27 -2 30 24 30 24 0
28 4 28 30 0 27 9 35 33 31 4 -1 10 12 13 29 5 21 12 30 25 30 11 0 19 7 19
15 0 8 4 15 10 15 5 0 7 7 3 16 -4 10 -1 15 8 14 29 -4 37 1 32 20 -4 16 0 20
22 20 24 0 26 3 21 25 -6 22 -3 25 19 25 22 0 25 3 19 26 -6 24 -5 26 16 19
20 -6 22 -4 17 14 -4 18 -1 21 24 21 27 0 28 2 19 26 -10 24 -8 26 11 21 31
-8 52 2 38 19 -15 18 -4 45 16 38 10 -4 15 0 15 15 0 12 6 21 15 21 10 0 15 7
13 18 -2 13 3 16 20 14 20 -3 23 0 17 17 -5 18 -2 21 19 21 23 0 25 3 21 35
-5 34 -4 35 21 29 25 -6 26 -5 20 20 -6 24 -4 27 14 21 16 -5 19 -3 13 11 -5
13 -2 15 15 10 20 -7 21 -5 16 24 -6 30 -6 31 20 24 25 -6 27 -5 20 20 -5 23
-3 26 20 26 21 0 26 5 26 25 0 18 5 25 20 25 11 0 20 7 20 15 0 12 7 14 28 9
26 -7 27 -6 10 13 -26 28 -22 36 12 31 19 -3 29 -1 27 6 -2 6 -11 10 -21 8 -9
-2 -16 4 -16 12 0 9 7 12 20 9 15 -4 20 0 20 16 0 18 3 19 25 11 22 -8 25 -7
25 12 l0 22 23 -23 c15 -16 18 -25 10 -28z m-4964 -2 c-6 -18 -13 -30 -15 -28
-2 2 1 18 7 36 6 18 13 30 15 28 2 -2 -1 -18 -7 -36z m5071 -1 c-29 -37 -61
-66 -47 -43 10 17 70 83 75 83 2 0 -11 -18 -28 -40z m-320 10 c0 -5 -6 -10
-12 -10 -8 0 -6 -5 4 -10 10 -6 14 -18 11 -30 -6 -23 -28 -26 -40 -7 -4 8 -16
16 -25 20 -10 3 -18 11 -18 18 0 6 6 9 14 6 8 -3 20 1 26 9 14 16 40 19 40 4z
m-5550 -5 c0 -2 -10 -9 -22 -15 -22 -11 -22 -10 -4 4 21 17 26 19 26 11z
m3536 -74 c74 -50 289 -266 257 -258 -13 3 -23 1 -23 -4 0 -5 -7 -9 -15 -9 -8
0 -15 -9 -15 -19 0 -15 -5 -18 -21 -14 -18 5 -20 3 -14 -17 5 -16 3 -21 -5
-18 -7 2 -14 21 -16 42 -3 34 -1 38 17 33 18 -5 20 -2 15 19 -6 23 -4 25 15
19 36 -12 19 11 -75 95 -86 78 -114 96 -102 65 7 -19 2 -19 -34 0 -31 16 -39
40 -17 48 8 3 6 7 -7 12 -28 12 -101 -17 -101 -41 0 -14 -6 -18 -22 -16 -16 2
-22 -3 -25 -20 -2 -17 -8 -22 -25 -20 -19 3 -23 -2 -23 -23 0 -25 -2 -26 -32
-20 -37 8 -49 21 -41 43 5 11 2 12 -13 4 -10 -6 -39 -18 -63 -27 -24 -8 -50
-22 -58 -30 -8 -8 -21 -15 -29 -15 -8 0 -14 -4 -14 -10 0 -5 -7 -10 -15 -10
-8 0 -15 -7 -15 -15 0 -8 -9 -15 -19 -15 -16 0 -21 -9 -27 -45 -3 -25 -9 -43
-13 -40 -8 4 -61 -126 -61 -150 0 -8 7 -15 15 -15 9 0 15 9 15 24 0 19 4 23
19 19 12 -3 19 0 18 9 -1 7 3 14 8 16 6 1 11 -12 12 -28 1 -27 -2 -30 -20 -25
-12 2 -16 2 -9 -1 22 -10 14 -33 -10 -26 -15 4 -19 2 -14 -7 11 -17 -2 -63
-15 -55 -8 4 -7 9 2 15 12 8 11 11 -1 19 -22 14 -30 12 -28 -7 1 -10 0 -29 -1
-43 -1 -19 -3 -22 -10 -11 -7 11 -12 4 -20 -25 -6 -21 -17 -60 -25 -86 -8 -27
-13 -49 -13 -49 1 -1 14 -2 30 -3 23 -2 27 1 25 24 -3 21 1 24 19 22 17 -2 20
1 16 18 -4 14 -1 20 11 20 9 0 16 4 16 10 0 5 7 7 15 4 10 -4 15 0 15 14 0 15
5 19 20 15 11 -3 20 -9 20 -14 0 -5 7 -6 15 -3 8 4 15 1 15 -5 0 -9 -28 -16
-52 -12 -5 0 -8 -3 -8 -9 0 -5 6 -10 13 -10 8 0 9 -3 1 -8 -6 -4 -13 -19 -16
-35 -5 -24 -2 -27 18 -24 13 2 26 6 30 9 3 4 12 4 20 1 9 -3 14 2 14 16 0 16
6 21 25 21 18 0 25 5 25 20 0 19 13 25 51 22 12 -1 15 5 11 24 -4 23 -2 24 21
19 23 -6 25 -4 21 17 -4 17 0 14 15 -12 26 -45 26 -53 1 -45 -18 6 -20 3 -14
-21 6 -23 4 -26 -10 -21 -10 4 -16 1 -16 -9 0 -10 6 -14 18 -10 9 2 36 8 60
11 24 4 46 13 48 20 8 19 63 27 79 11 11 -11 -12 -18 -138 -44 -84 -18 -213
-41 -287 -52 -74 -12 -145 -23 -157 -27 -26 -6 -27 -4 -12 34 6 15 41 149 79
297 38 148 73 273 77 277 8 8 502 209 514 209 4 0 33 -18 65 -39z m1814 5 c0
-3 -4 -8 -10 -11 -5 -3 -10 -1 -10 4 0 6 5 11 10 11 6 0 10 -2 10 -4z m460 -9
c0 -2 -10 -12 -22 -23 l-23 -19 19 23 c18 21 26 27 26 19z m-3100 -67 c0 -5
-2 -10 -4 -10 -3 0 -8 5 -11 10 -3 6 -1 10 4 10 6 0 11 -4 11 -10z m790 -22
c0 -16 -3 -17 -20 -8 -11 6 -20 17 -20 24 0 9 7 12 20 9 11 -3 20 -14 20 -25z
m2203 -40 c-48 -62 -152 -188 -237 -288 -11 -14 -41 -50 -66 -80 -41 -50 -192
-229 -244 -290 -12 -14 -57 -69 -99 -123 -71 -88 -80 -97 -105 -91 -25 5 -26
4 -8 -10 18 -14 17 -18 -27 -78 -61 -85 -196 -234 -208 -230 -6 1 -8 -2 -5 -7
8 -13 -201 -255 -222 -258 -10 -2 -12 0 -4 3 10 5 10 9 1 20 -6 8 -17 14 -23
14 -6 0 -4 -5 4 -10 9 -6 10 -10 3 -10 -6 0 -15 5 -18 10 -6 9 1 13 44 26 11
4 11 7 0 21 -13 14 -11 16 19 11 18 -2 35 -1 38 4 3 4 -2 8 -10 8 -23 0 -19
17 5 23 13 3 19 12 17 24 -2 12 4 19 20 21 18 3 21 8 17 23 -6 17 -3 19 18 15
13 -2 30 0 38 5 11 7 9 9 -8 9 -13 0 -23 4 -23 10 0 5 6 7 14 4 20 -8 30 14
14 33 -11 14 -10 16 15 11 28 -5 46 5 27 17 -19 12 -10 23 23 31 17 4 26 9 20
11 -15 5 -18 33 -4 33 5 0 17 7 25 16 9 8 16 11 16 5 0 -6 4 -11 9 -11 4 0 6
12 3 26 -4 21 -1 25 14 22 11 -2 19 3 20 12 3 36 5 40 25 40 11 0 17 5 14 10
-3 6 1 10 10 10 12 0 15 6 10 20 -5 16 -2 20 17 20 22 0 24 4 22 41 -2 31 1
39 12 35 8 -3 13 0 11 7 -1 7 12 13 30 15 30 3 31 5 23 28 -14 35 -13 35 15
28 21 -5 24 -3 19 19 -3 21 0 26 18 29 18 2 23 9 21 31 -2 32 7 35 25 6 7 -12
16 -18 19 -15 3 3 1 12 -6 19 -9 11 -8 17 3 26 8 7 13 18 10 26 -3 8 1 12 13
12 13 -2 17 4 15 17 -3 18 -2 18 14 5 16 -13 17 -12 11 13 -7 27 3 32 32 14
11 -7 13 -3 8 22 -7 33 1 40 21 20 9 -9 12 -8 13 5 3 38 5 42 25 40 17 -2 20
2 16 27 -4 31 6 38 26 18 9 -9 12 -8 12 6 0 11 5 15 13 10 10 -6 10 -4 0 7 -7
7 -13 17 -13 21 0 13 28 9 33 -4 2 -7 8 -10 12 -6 4 4 4 15 0 25 -16 37 -14
42 21 36 31 -5 33 -4 28 21 -3 21 -1 26 16 26 14 0 20 7 20 21 0 15 5 19 15
15 9 -3 15 0 15 9 0 8 5 15 11 15 7 0 9 10 5 25 -6 25 8 36 17 13 3 -8 6 -6 6
5 1 9 5 16 10 15 5 -2 9 -1 8 2 -1 3 21 26 47 53 27 26 45 47 42 47 -4 0 4 11
18 24 15 13 26 31 26 40 0 10 5 14 11 10 6 -3 24 10 41 30 54 66 40 37 -19
-36z m404 15 c-3 -10 -5 -2 -5 17 0 19 2 27 5 18 2 -10 2 -26 0 -35z m-2633 1
c3 -8 10 -12 16 -9 5 3 10 1 10 -4 0 -14 -27 -14 -35 -1 -3 5 -12 7 -19 4 -7
-3 -16 2 -19 10 -5 12 0 16 17 16 13 0 27 -7 30 -16z m1736 -14 c0 -20 -5 -30
-15 -30 -9 0 -15 -9 -15 -25 0 -19 -5 -25 -21 -25 -12 0 -28 8 -36 18 -13 16
-13 16 -5 -3 7 -18 8 -29 3 -51 0 -3 -8 2 -17 10 -18 18 -34 21 -34 5 0 -5 5
-7 10 -4 6 3 10 1 10 -4 0 -13 -3 -13 -24 -5 -9 3 -13 10 -10 15 3 5 -1 6 -9
3 -8 -3 -18 0 -22 6 -4 7 2 14 14 17 16 4 21 12 19 32 -3 26 -2 27 44 14 11
-3 16 1 15 14 -1 11 4 17 14 15 9 -1 22 5 29 13 7 8 21 15 31 15 14 0 19 -7
19 -30z m-1560 -23 c24 -20 26 -39 5 -31 -8 4 -15 10 -15 16 0 5 -3 7 -7 5 -5
-3 -17 4 -28 15 -19 18 -19 18 3 15 13 -2 32 -11 42 -20z m-422 7 c14 -4 22
-14 22 -27 0 -16 -3 -18 -12 -9 -19 19 -29 14 -22 -13 7 -29 -2 -31 -33 -10
-21 15 -21 15 -12 -17 5 -18 9 -35 9 -37 0 -2 -11 0 -25 3 -19 5 -25 2 -25 -9
0 -9 5 -13 10 -10 6 3 10 -1 10 -10 0 -12 -6 -14 -27 -9 -33 8 -49 28 -27 32
11 3 14 11 10 28 -6 22 -4 23 23 18 27 -6 28 -4 24 20 -5 25 -4 27 22 20 25
-6 28 -5 22 15 -6 23 -3 24 31 15z m220 -3 c6 -1 12 -5 12 -9 0 -11 -69 -2
-76 10 -3 5 6 7 23 4 15 -2 34 -5 41 -5z m-1939 -56 c117 -30 215 -55 216 -57
2 -2 26 -77 54 -168 28 -91 71 -226 96 -300 25 -74 41 -138 37 -142 -8 -8 -73
161 -153 401 -27 80 -59 155 -71 168 -22 24 -105 52 -287 98 l-104 26 -28 -33
c-34 -40 -149 -210 -173 -255 -9 -18 -19 -33 -22 -33 -7 0 23 55 79 145 45 72
136 205 140 205 1 0 98 -25 216 -55z m3027 -77 c101 -72 184 -134 184 -137 0
-10 -388 -491 -396 -491 -2 0 -3 17 -3 38 1 32 2 33 8 11 5 -23 23 -5 193 207
l187 232 -155 109 c-85 59 -163 114 -172 120 -16 12 -18 -1 -20 -195 -2 -114
-6 -232 -10 -262 -4 -32 -7 61 -7 222 0 153 1 278 3 278 2 0 86 -59 188 -132z
m1561 100 c-3 -7 -5 -2 -5 12 0 14 2 19 5 13 2 -7 2 -19 0 -25z m-2677 2 c-20
-13 -40 -13 -40 0 0 6 12 10 28 10 21 0 24 -2 12 -10z m190 0 c0 -5 -4 -10
-10 -10 -5 0 -10 5 -10 10 0 6 5 10 10 10 6 0 10 -4 10 -10z m-1670 -30 c0 -5
-4 -10 -10 -10 -5 0 -10 5 -10 10 0 6 5 10 10 10 6 0 10 -4 10 -10z m1435 0
c3 -5 -1 -10 -9 -10 -9 0 -16 5 -16 10 0 6 4 10 9 10 6 0 13 -4 16 -10z m2712
-37 c-3 -10 -5 -4 -5 12 0 17 2 24 5 18 2 -7 2 -21 0 -30z m-2747 -13 c0 -5
-2 -10 -4 -10 -3 0 -8 5 -11 10 -3 6 -1 10 4 10 6 0 11 -4 11 -10z m2730 -120
c-7 -55 -15 -98 -18 -96 -2 3 1 50 8 106 7 55 15 98 18 96 2 -3 -1 -50 -8
-106z m-3000 74 c-1 -4 4 -10 11 -15 17 -10 7 -21 -13 -14 -10 4 -13 15 -10
33 3 15 7 21 9 15 3 -7 4 -15 3 -19z m230 14 c0 -4 -7 -8 -15 -8 -13 0 -20
-19 -16 -43 1 -5 -8 -5 -20 -2 -13 4 -24 2 -29 -5 -5 -8 -9 -5 -13 10 -4 15
-1 21 11 19 33 -3 41 1 37 21 -3 16 1 19 21 18 13 -1 24 -6 24 -10z m871 -197
c-11 -169 -30 -325 -38 -318 -2 3 1 42 7 88 6 46 14 155 18 242 l7 159 -57
-63 c-31 -34 -54 -68 -51 -75 2 -6 0 -15 -6 -19 -6 -3 -11 -2 -11 4 0 6 -7 8
-15 5 -10 -4 -15 -20 -15 -49 0 -76 -20 -197 -52 -313 -17 -62 -32 -111 -34
-109 -2 2 10 57 27 123 21 80 33 155 36 229 l6 110 91 96 c74 78 92 93 94 76
2 -11 -1 -95 -7 -186z m-1135 159 c0 -11 -4 -20 -8 -20 -4 0 -8 9 -8 20 0 11
4 20 8 20 4 0 8 -9 8 -20z m631 -12 c-3 -7 -5 -2 -5 12 0 14 2 19 5 13 2 -7 2
-19 0 -25z m-2947 -10 c0 -7 -25 -28 -55 -46 l-54 -32 1 -943 c0 -518 4 -973
8 -1012 4 -38 8 -60 9 -47 0 12 6 22 11 22 14 0 12 -13 -5 -36 -16 -22 -20
-54 -5 -54 5 0 13 6 17 14 4 8 28 24 53 37 25 13 47 26 50 29 3 3 22 16 43 29
20 12 34 27 31 33 -3 5 0 9 7 7 39 -5 50 1 45 24 -3 12 -3 16 0 10 3 -7 10
-13 15 -13 6 0 7 4 4 10 -3 5 0 7 9 4 8 -3 25 5 38 18 13 13 28 23 33 23 6 0
9 17 8 38 -3 41 2 45 29 20 11 -9 18 -11 18 -5 0 7 -6 12 -12 12 -10 0 -10 2
0 9 8 4 13 11 13 15 -1 3 1 6 4 6 3 0 9 0 14 0 14 0 18 -32 8 -57 -5 -12 -55
-49 -114 -83 -57 -34 -102 -64 -100 -66 5 -5 303 172 392 232 96 65 180 124
194 136 11 9 1 22 -55 71 -292 255 -477 523 -584 845 -65 194 -81 292 -85 502
l-3 185 8 -165 c10 -203 29 -318 80 -480 61 -195 161 -387 294 -565 67 -90
239 -265 333 -339 l62 -48 -162 -106 c-191 -124 -480 -293 -619 -363 l-98 -49
0 1059 0 1058 58 36 c31 19 58 35 60 36 1 1 2 -5 2 -11z m2325 -18 c5 -8 -53
-6 -61 3 -3 3 8 5 25 5 18 -1 34 -4 36 -8z m145 -10 c0 -5 -2 -10 -4 -10 -3 0
-8 5 -11 10 -3 6 -1 10 4 10 6 0 11 -4 11 -10z m30 0 c0 -5 -4 -10 -10 -10 -5
0 -10 5 -10 10 0 6 5 10 10 10 6 0 10 -4 10 -10z m457 4 c-3 -3 -12 -4 -19 -1
-8 3 -5 6 6 6 11 1 17 -2 13 -5z m1533 -1 c0 -5 -5 -15 -10 -23 -8 -12 -10
-11 -10 8 0 12 5 22 10 22 6 0 10 -3 10 -7z m-1583 -45 c-3 -8 -6 -5 -6 6 -1
11 2 17 5 13 3 -3 4 -12 1 -19z m-447 2 c0 -5 -7 -7 -15 -4 -8 4 -15 8 -15 10
0 2 7 4 15 4 8 0 15 -4 15 -10z m907 -20 c-1 -22 -17 -28 -17 -7 0 12 9 27 16
27 2 0 2 -9 1 -20z m-949 -15 c-3 -3 -9 2 -12 12 -6 14 -5 15 5 6 7 -7 10 -15
7 -18z m1992 -10 c-7 -8 -9 -15 -6 -15 4 0 0 -7 -9 -16 -9 -9 -19 -14 -22 -11
-3 3 2 13 11 22 9 9 16 21 16 26 0 5 5 9 11 9 8 0 8 -5 -1 -15z m-2025 -5 c3
-5 1 -10 -4 -10 -6 0 -11 5 -11 10 0 6 2 10 4 10 3 0 8 -4 11 -10z m-2742
-2181 c-11 -10 -227 -78 -232 -73 -3 2 -6 102 -7 222 -2 210 -2 212 6 69 4
-81 10 -151 14 -154 3 -4 6 9 7 28 0 19 3 27 7 19 3 -9 10 2 18 30 l12 45 2
-40 c1 -22 2 -44 1 -48 -1 -5 3 -6 9 -2 5 3 11 18 11 33 1 27 1 27 9 -3 7 -30
7 -30 13 -5 3 14 8 34 10 45 3 12 5 6 6 -13 1 -42 21 -32 22 11 1 20 3 24 6
12 10 -47 16 -49 28 -10 l13 40 2 -40 c1 -35 2 -37 11 -17 5 13 13 20 19 17
12 -7 12 699 0 860 -3 55 -8 89 -9 75 -1 -18 -4 -21 -10 -12 -11 19 -20 -6
-23 -61 -1 -37 -2 -38 -5 -9 -2 17 -8 32 -13 32 -5 0 -14 15 -19 33 -8 28 -9
24 -11 -38 l-2 -70 -9 59 c-11 73 -19 83 -20 25 -1 -39 -14 -112 -18 -99 -1 3
-4 43 -7 90 -4 47 -8 87 -10 89 -2 2 -4 -40 -4 -95 0 -63 -4 -94 -9 -85 -7 11
-10 7 -14 -15 -4 -28 -4 -27 -6 6 -2 34 -3 34 -13 10 -6 -14 -13 -130 -16
-263 -2 -131 -6 -236 -8 -235 -8 8 -13 1093 -6 1283 5 121 10 189 12 150 3
-63 4 -66 10 -30 l7 40 2 -53 c1 -60 20 -63 23 -4 1 33 2 32 8 -13 4 -27 8
-39 9 -25 1 14 6 32 11 40 7 11 10 5 12 -25 1 -22 5 7 8 65 l6 105 3 -120 c3
-101 5 -112 11 -70 5 28 9 88 11 135 2 82 2 83 9 30 l7 -55 3 60 2 60 8 -48
c11 -62 17 -67 29 -26 5 19 10 26 10 16 1 -10 5 -16 10 -12 5 3 11 -3 13 -12
3 -10 9 34 14 97 6 81 10 -205 12 -964 1 -594 -1 -1083 -5 -1087z m2727 2146
c0 -8 -7 -15 -15 -15 -8 0 -15 7 -15 15 0 8 7 15 15 15 8 0 15 -7 15 -15z m30
-18 c0 -5 -4 -5 -10 -2 -5 3 -10 14 -10 23 0 15 2 15 10 2 5 -8 10 -19 10 -23z
m930 23 c0 -5 -4 -10 -9 -10 -6 0 -13 5 -16 10 -3 6 1 10 9 10 9 0 16 -4 16
-10z m1997 -37 c-3 -10 -5 -2 -5 17 0 19 2 27 5 18 2 -10 2 -26 0 -35z m-2965
-7 c14 -20 8 -26 -19 -20 -29 7 -45 23 -37 35 6 10 47 -2 56 -15z m-2188 -9
c8 -12 29 -86 46 -164 26 -121 46 -188 95 -328 6 -16 5 -17 -4 -5 -19 25 -88
252 -111 362 -12 57 -28 113 -36 125 -24 38 -14 48 10 10z m2141 -17 c7 0 16
-7 19 -16 4 -11 2 -15 -8 -11 -8 3 -17 1 -19 -6 -3 -9 -8 -8 -20 2 -22 18 -23
45 -1 37 9 -3 22 -6 29 -6z m2999 -59 c-4 -34 -9 -60 -11 -57 -3 3 -2 32 2 66
4 34 9 59 12 57 2 -3 1 -33 -3 -66z m-2604 8 c0 -5 -4 -9 -10 -9 -5 0 -10 7
-10 16 0 8 5 12 10 9 6 -3 10 -10 10 -16z m-37 -6 c-7 -2 -19 -2 -25 0 -7 3
-2 5 12 5 14 0 19 -2 13 -5z m464 -35 c-3 -7 -5 -2 -5 12 0 14 2 19 5 13 2 -7
2 -19 0 -25z m-10 -50 c-3 -8 -6 -5 -6 6 -1 11 2 17 5 13 3 -3 4 -12 1 -19z
m2170 -35 c-3 -10 -5 -2 -5 17 0 19 2 27 5 18 2 -10 2 -26 0 -35z m-2180 -5
c-3 -8 -6 -5 -6 6 -1 11 2 17 5 13 3 -3 4 -12 1 -19z m500 -50 c-2 -13 -4 -5
-4 17 -1 22 1 32 4 23 2 -10 2 -28 0 -40z m1670 -15 c-3 -10 -5 -4 -5 12 0 17
2 24 5 18 2 -7 2 -21 0 -30z m-2627 12 c0 -2 -6 -24 -14 -47 -8 -24 -23 -74
-34 -113 -44 -148 -62 -203 -92 -275 -17 -41 -36 -79 -41 -85 -10 -10 -35 13
-101 93 -21 25 -32 31 -51 27 -27 -7 -217 -159 -307 -245 -35 -33 -65 -58 -67
-56 -8 8 -31 -18 -25 -28 3 -5 0 -6 -5 -3 -11 7 -41 -15 -318 -228 -543 -418
-1065 -749 -1620 -1028 -163 -82 -216 -105 -370 -162 -38 -14 -95 -39 -126
-55 -57 -29 -148 -57 -222 -66 -23 -3 -69 -10 -102 -15 -33 -5 -105 -9 -161
-9 -87 0 -107 3 -150 25 -57 29 -107 95 -125 167 -15 62 -1 344 18 371 5 6 10
27 12 46 2 19 9 44 17 56 8 12 11 25 7 30 -5 4 -3 5 3 2 8 -5 29 34 39 73 4
15 18 47 27 64 40 75 63 111 109 177 28 41 49 66 46 57 -3 -9 -1 -19 6 -22 7
-2 4 -5 -5 -5 -10 -1 -18 -5 -18 -11 0 -25 29 1 85 77 33 46 63 83 68 83 4 0
7 -61 7 -137 l0 -136 -54 -91 c-139 -234 -180 -344 -193 -517 -4 -59 -2 -69
17 -87 43 -39 191 -45 318 -12 42 11 85 20 96 20 25 0 261 79 326 108 25 11
88 39 140 62 242 106 727 374 945 520 39 26 129 86 200 133 257 168 1001 738
1163 892 63 59 67 65 66 105 -1 24 -7 46 -15 51 -8 5 -9 9 -4 9 6 0 6 3 0 8
-16 11 -35 60 -29 75 3 8 49 26 102 40 122 33 129 35 232 42 47 3 103 10 125
14 48 10 75 13 75 6z m747 -47 c-3 -7 -5 -2 -5 12 0 14 2 19 5 13 2 -7 2 -19
0 -25z m1870 -35 c-3 -10 -5 -2 -5 17 0 19 2 27 5 18 2 -10 2 -26 0 -35z
m-1880 -5 c-3 -8 -6 -5 -6 6 -1 11 2 17 5 13 3 -3 4 -12 1 -19z m-1420 -26
c12 -20 39 -58 58 -84 l36 -46 -123 -102 c-105 -87 -329 -261 -378 -293 -31
-21 47 49 92 83 26 19 48 40 48 46 0 7 9 14 21 17 12 3 18 10 14 16 -3 6 2 11
12 11 26 1 56 26 47 41 -5 9 -2 10 9 6 15 -6 43 12 94 58 12 11 40 34 62 50
22 17 40 36 41 43 0 7 4 11 9 8 5 -3 11 0 14 8 4 9 0 13 -11 11 -19 -3 -42 12
-42 27 0 5 9 4 20 -2 15 -8 20 -8 20 2 -1 18 -68 108 -81 108 -12 0 -8 -32 6
-42 6 -5 5 -8 -3 -8 -7 0 -16 10 -21 23 l-9 23 -129 -12 c-70 -6 -178 -12
-239 -13 -124 -2 -219 -14 -240 -32 -8 -7 -31 -38 -51 -70 -20 -33 -38 -59
-40 -59 -5 0 74 148 90 168 5 6 30 12 56 12 25 0 105 5 176 11 115 9 326 24
395 28 19 1 30 -8 47 -37z m1410 -14 c-3 -8 -6 -5 -6 6 -1 11 2 17 5 13 3 -3
4 -12 1 -19z m1880 -35 c-3 -10 -5 -2 -5 17 0 19 2 27 5 18 2 -10 2 -26 0 -35z
m-2098 -82 c-17 -45 -33 -80 -36 -77 -2 2 10 43 29 90 18 47 34 82 36 77 1 -4
-12 -45 -29 -90z m2088 22 c-3 -10 -5 -4 -5 12 0 17 2 24 5 18 2 -7 2 -21 0
-30z m-3282 -23 c-3 -4 1 -10 7 -13 9 -3 7 -7 -4 -12 -10 -4 -26 -4 -35 0 -16
6 -15 8 5 16 14 5 20 13 16 20 -4 8 -3 9 5 5 6 -4 9 -11 6 -16z m739 -19 c-4
-17 -9 -30 -11 -27 -3 2 -2 19 2 36 4 17 9 30 11 27 2 -2 1 -18 -2 -36z
m-2350 -78 c20 -40 34 -73 31 -73 -5 0 -75 136 -75 146 0 12 6 1 44 -73z
m3654 40 c10 -31 9 -33 -14 -33 -20 0 -24 -5 -24 -30 0 -34 -22 -41 -39 -12
-8 13 -10 9 -6 -21 4 -34 3 -36 -15 -27 -22 12 -23 9 -20 -34 2 -29 -20 -34
-28 -5 -3 11 -1 11 8 -1 10 -13 11 -13 8 0 -3 8 -20 18 -39 21 -27 6 -31 5
-18 -4 8 -7 18 -20 22 -30 5 -13 2 -17 -11 -15 -11 2 -16 -3 -14 -14 2 -11 -3
-18 -13 -18 -9 0 -13 5 -10 10 3 6 1 10 -4 10 -12 0 -10 -27 2 -47 5 -8 3 -13
-3 -13 -7 0 -14 9 -17 19 -3 11 -11 22 -19 25 -29 11 -15 36 19 36 41 0 52 9
30 25 -25 18 -6 38 33 33 33 -4 33 -3 19 19 -20 30 -19 43 5 43 11 0 29 5 39
12 18 11 18 13 3 25 -15 11 -14 12 9 13 15 0 33 8 40 17 8 9 9 14 3 10 -7 -4
-14 -1 -17 7 -4 10 3 14 28 13 28 -1 34 -6 43 -34z m-2083 -2 c3 -5 1 -12 -5
-16 -5 -3 -10 1 -10 9 0 18 6 21 15 7z m762 -23 c-3 -8 -6 -5 -6 6 -1 11 2 17
5 13 3 -3 4 -12 1 -19z m2252 -12 l22 -24 -4 -738 c-3 -621 -7 -758 -21 -859
-17 -121 -66 -340 -86 -385 l-11 -25 6 25 c32 142 45 208 44 225 0 11 -3 14
-6 8 -7 -19 -23 -16 -23 5 0 14 -2 15 -10 2 -5 -8 -10 -11 -10 -6 0 5 -10 -3
-22 -17 l-23 -26 3 117 c2 64 1 114 -1 112 -3 -3 -8 -57 -11 -121 -4 -65 -11
-130 -16 -145 -6 -20 -7 -8 -4 41 6 77 -9 73 -20 -5 -9 -63 -26 -87 -20 -29 3
33 2 38 -5 19 l-8 -25 -5 30 c-3 17 -7 -6 -8 -50 -3 -71 -4 -74 -7 -25 -3 39
-7 50 -14 40 -7 -10 -8 1 -4 35 3 31 -12 -11 -40 -108 -109 -383 -270 -697
-522 -1022 -382 -490 -1044 -998 -1802 -1383 -146 -74 -160 -71 -501 121 -589
330 -1046 676 -1364 1033 -97 108 -184 218 -169 213 6 -2 41 -42 78 -89 99
-124 400 -419 551 -540 268 -214 546 -399 874 -582 380 -212 379 -212 515
-145 50 24 167 87 260 139 620 345 1121 741 1478 1168 96 114 264 361 345 505
102 182 198 429 251 646 62 253 69 349 72 896 2 249 6 459 11 465 5 8 8 3 8
-14 0 -16 5 -28 11 -28 5 0 7 5 4 10 -3 6 -1 10 4 10 6 0 11 -12 12 -27 1 -32
4 -24 15 32 l7 40 7 -30 8 -30 1 30 c2 57 21 4 22 -65 l2 -65 12 90 12 90 3
-110 c1 -60 4 -102 7 -92 2 9 9 15 14 12 5 -4 9 -3 9 2 2 44 13 159 16 162 2
2 4 -21 4 -52 0 -30 3 -62 6 -71 13 -33 24 -14 26 42 l1 57 6 -60 c12 -117 18
-18 17 265 -1 280 -1 285 -22 288 -19 3 -63 -44 -191 -200 -17 -21 -34 -35
-37 -30 -3 5 35 58 85 118 50 60 98 119 106 132 19 28 24 28 52 -2z m-3759 -6
c-6 -11 -13 -20 -16 -20 -2 0 0 9 6 20 6 11 13 20 16 20 2 0 0 -9 -6 -20z
m1535 10 c3 -5 1 -10 -4 -10 -6 0 -11 5 -11 10 0 6 2 10 4 10 3 0 8 -4 11 -10z
m576 -27 c-12 -20 -14 -14 -5 12 4 9 9 14 11 11 3 -2 0 -13 -6 -23z m-614 -5
c-3 -8 -6 -5 -6 6 -1 11 2 17 5 13 3 -3 4 -12 1 -19z m20 -37 c14 5 27 8 29 6
3 -2 -14 -11 -37 -20 -36 -14 -40 -14 -35 -1 3 9 7 21 7 27 1 7 3 4 6 -5 3
-14 9 -15 30 -7z m1063 -152 c0 -5 -11 -7 -25 -3 -21 5 -24 3 -19 -12 5 -18 5
-18 -6 -1 -6 9 -9 21 -6 26 7 11 56 2 56 -10z m-1407 -76 c26 -41 47 -77 45
-79 -2 -1 -25 28 -51 66 -31 45 -52 67 -62 64 -7 -3 -11 -12 -8 -20 3 -8 -4
-22 -15 -32 -52 -44 -63 -52 -67 -52 -2 0 -2 8 1 18 5 14 4 14 -4 2 -7 -8 -7
-19 -2 -25 13 -16 -4 -37 -26 -33 -11 2 -18 -2 -16 -9 1 -7 -7 -13 -17 -13
-11 0 -26 -9 -33 -19 -8 -11 -22 -19 -33 -18 -24 2 -56 -54 -35 -61 7 -3 -20
-20 -60 -39 -41 -18 -77 -30 -81 -26 -9 9 388 352 406 352 6 0 32 -34 58 -76z
m1410 43 c4 -9 -2 -13 -18 -13 -19 0 -21 2 -12 13 15 17 24 17 30 0z m-63 -16
c0 -5 -2 -10 -4 -10 -3 0 -8 5 -11 10 -3 6 -1 10 4 10 6 0 11 -4 11 -10z m-22
-37 c0 -21 -2 -23 -10 -9 -5 9 -14 13 -21 9 -7 -4 -6 0 2 10 19 24 29 21 29
-10z m32 7 c0 -5 -2 -10 -4 -10 -3 0 -8 5 -11 10 -3 6 -1 10 4 10 6 0 11 -4
11 -10z m-57 -39 c4 -4 -6 -8 -23 -8 -19 0 -30 5 -30 14 0 14 35 10 53 -6z
m-525 -45 c454 -193 942 -418 942 -433 0 -9 -102 -46 -190 -71 l-55 -15 -215
100 c-118 56 -300 139 -405 186 -382 172 -430 196 -409 203 10 5 57 25 104 45
47 21 89 38 93 38 5 1 66 -23 135 -53z m438 4 c24 -11 44 -22 44 -25 0 -5 -24
3 -69 26 -49 25 -30 24 25 -1z m94 1 c0 -9 -6 -11 -17 -6 -10 4 -27 7 -38 7
-15 -1 -16 1 -6 7 20 13 61 8 61 -8z m-1305 -21 c-3 -5 -12 -10 -18 -10 -7 0
-6 4 3 10 19 12 23 12 15 0z m-2262 -12 c24 -11 27 -18 25 -53 -2 -33 -7 -41
-25 -43 -13 -2 -23 -9 -23 -15 0 -7 -4 -6 -10 3 -12 18 -13 120 -2 120 4 0 20
-6 35 -12z m2177 -28 c-8 -5 -19 -10 -25 -10 -5 0 -3 5 5 10 8 5 20 10 25 10
6 0 3 -5 -5 -10z m-200 -30 c0 -5 -2 -10 -4 -10 -3 0 -8 5 -11 10 -3 6 -1 10
4 10 6 0 11 -4 11 -10z m689 -119 c243 -109 731 -331 818 -374 70 -33 81 -47
40 -47 -10 0 -58 -18 -106 -41 -47 -22 -93 -41 -101 -41 -8 -1 -175 74 -370
166 -411 194 -655 306 -670 306 -5 0 -10 3 -10 8 0 7 197 102 214 102 4 0 88
-35 185 -79z m1662 -20 c-34 -44 -67 -83 -74 -87 -14 -9 -7 1 72 104 30 39 57
70 59 67 2 -2 -23 -40 -57 -84z m-5480 28 c37 -40 36 -53 -5 -103 -19 -23 -69
-96 -111 -161 -93 -144 -111 -165 -142 -165 -25 0 -63 32 -63 54 0 35 257 406
281 406 6 0 24 -14 40 -31z m1219 -49 c0 -5 -2 -10 -4 -10 -3 0 -8 5 -11 10
-3 6 -1 10 4 10 6 0 11 -4 11 -10z m2184 -147 c273 -122 359 -160 556 -250 96
-44 215 -98 264 -119 98 -42 99 -40 -16 -67 l-67 -16 -203 91 c-461 206 -577
258 -663 298 -49 24 -124 57 -165 76 -46 20 -69 35 -60 38 85 32 128 43 144
39 10 -3 105 -44 210 -90z m-2045 65 c0 -16 -2 -18 -6 -8 -3 8 -11 18 -17 22
-7 5 -4 8 7 8 11 0 17 -7 16 -22z m201 8 c0 -3 -4 -8 -10 -11 -5 -3 -10 -1
-10 4 0 6 5 11 10 11 6 0 10 -2 10 -4z m-439 -26 c21 -12 26 -49 7 -54 -7 -2
-28 -8 -45 -14 -31 -10 -33 -9 -33 15 0 54 29 75 71 53z m210 -3 c-1 -12 -15
-9 -19 4 -3 6 1 10 8 8 6 -3 11 -8 11 -12z m-19 -38 c33 -24 58 -73 58 -114 0
-72 -76 -131 -148 -114 -44 10 -87 41 -86 63 1 9 -2 14 -6 11 -10 -6 -20 19
-20 52 0 30 41 82 84 105 42 23 82 22 118 -3z m218 -21 c0 -28 -2 -30 -29 -25
-26 5 -29 3 -36 -26 -6 -31 -7 -31 -17 -9 -6 12 -15 22 -20 22 -5 0 -6 -4 -3
-10 3 -5 0 -10 -7 -10 -15 0 -47 19 -35 21 4 1 11 2 15 3 5 0 16 9 26 19 10 9
22 17 27 17 5 0 9 8 9 18 0 15 6 17 35 14 31 -4 35 -7 35 -34z m1150 6 c0 -8
-4 -13 -8 -10 -4 2 -25 -11 -47 -30 -22 -19 -43 -34 -47 -34 -4 0 -4 -7 -1
-17 4 -11 3 -14 -5 -9 -16 10 -54 -12 -46 -26 4 -7 3 -8 -5 -4 -6 4 -28 -5
-49 -22 -20 -16 -44 -33 -52 -37 -13 -8 -13 -6 -2 7 13 17 249 198 258 198 2
0 4 -7 4 -16z m-997 -38 c4 -10 1 -13 -9 -9 -15 6 -19 23 -5 23 5 0 11 -7 14
-14z m1497 -146 c107 -48 308 -138 445 -199 138 -62 294 -133 348 -158 l97
-46 0 -450 c0 -248 -2 -448 -4 -446 -2 2 -7 123 -11 269 -4 146 -8 283 -9 304
-1 33 -5 40 -23 41 -22 2 -23 -2 -25 -94 -1 -53 -5 -4 -8 108 l-5 205 -33 13
c-19 8 -31 9 -27 3 3 -5 1 -10 -4 -10 -6 0 -11 7 -11 15 0 18 -136 89 -157 81
-8 -3 -11 -1 -8 4 4 6 -13 19 -37 29 -24 10 -101 47 -173 81 -71 34 -184 86
-250 115 -66 29 -173 78 -238 109 -64 31 -123 56 -130 56 -9 0 -12 -78 -10
-355 1 -217 -3 -357 -8 -361 -6 -4 -9 139 -7 389 2 217 0 393 -4 391 -3 -2 -9
2 -11 8 -4 9 -6 8 -6 -2 -1 -9 4 -21 11 -28 9 -9 9 -12 -1 -12 -7 0 -9 -5 -6
-10 4 -6 2 -17 -4 -24 -7 -8 -12 -133 -14 -367 l-2 -354 -3 422 -2 422 68 -30
c37 -17 155 -71 262 -119z m-3060 130 c0 -5 -8 -10 -17 -10 -15 0 -16 2 -3 10
19 12 20 12 20 0z m-40 -20 c0 -5 -5 -10 -11 -10 -5 0 -7 5 -4 10 3 6 8 10 11
10 2 0 4 -4 4 -10z m2597 -112 c-2 -24 -4 -5 -4 42 0 47 2 66 4 43 2 -24 2
-62 0 -85z m-2584 88 c-10 -13 -19 -23 -21 -21 -5 5 22 45 31 45 4 0 0 -11
-10 -24z m1507 13 c0 -15 -18 -19 -23 -6 -3 8 1 14 9 14 8 0 14 -4 14 -8z m45
-9 c-3 -5 -10 -10 -16 -10 -5 0 -9 5 -9 10 0 6 7 10 16 10 8 0 12 -4 9 -10z
m-75 -20 c0 -5 -2 -10 -4 -10 -3 0 -8 5 -11 10 -3 6 -1 10 4 10 6 0 11 -4 11
-10z m27 -15 c0 -8 -4 -15 -9 -15 -4 0 -8 7 -8 15 0 8 4 15 8 15 5 0 9 -7 9
-15z m-77 -27 c0 -5 -4 -8 -10 -8 -5 0 -10 10 -10 23 0 18 2 19 10 7 5 -8 10
-18 10 -22z m38 11 c-7 -5 -13 -13 -13 -19 0 -5 -4 -10 -10 -10 -5 0 -9 9 -8
20 1 29 1 29 24 23 16 -4 17 -8 7 -14z m3660 -506 l-3 -488 -2 477 -3 477 -83
-35 c-45 -19 -99 -43 -119 -53 -24 -12 -38 -14 -38 -7 0 9 213 110 243 115 4
0 6 -218 5 -486z m-3718 468 c0 -10 -26 -9 -36 2 -4 4 2 7 14 7 12 0 22 -4 22
-9z m-40 -32 c0 -6 -4 -7 -10 -4 -6 4 -10 -5 -10 -19 0 -29 -3 -30 -31 -16
-21 12 -27 42 -6 34 8 -3 20 2 27 10 13 16 30 13 30 -5z m40 1 c0 -5 -4 -10
-9 -10 -6 0 -13 5 -16 10 -3 6 1 10 9 10 9 0 16 -4 16 -10z m-80 -75 c0 -33
-15 -33 -16 0 -1 14 2 25 7 25 5 0 9 -11 9 -25z m-210 5 c0 -5 -7 -10 -16 -10
-8 0 -12 5 -9 10 3 6 10 10 16 10 5 0 9 -4 9 -10z m85 -40 c3 -5 1 -10 -4 -10
-6 0 -11 5 -11 10 0 6 2 10 4 10 3 0 8 -4 11 -10z m902 -11 c-9 -6 -15 -14
-12 -20 4 -5 -6 -9 -21 -9 l-28 0 34 25 c18 14 36 22 39 19 3 -3 -2 -10 -12
-15z m2960 -19 c2 -23 2 -23 -6 -5 -8 17 -10 18 -10 3 -1 -10 -6 -18 -12 -18
-6 0 -9 -9 -6 -20 3 -13 0 -20 -9 -20 -8 0 -14 5 -14 11 0 5 -5 7 -10 4 -6 -4
-8 -10 -5 -15 10 -17 -15 -21 -31 -6 -12 12 -12 16 -2 17 10 0 10 2 1 6 -24 9
-13 33 25 53 49 26 76 22 79 -10z m-3892 -8 c-3 -3 -11 0 -18 7 -9 10 -8 11 6
5 10 -3 15 -9 12 -12z m3533 -804 c-1 -482 -5 -750 -9 -648 -3 96 -6 460 -5
808 2 437 -1 632 -8 631 -6 0 -56 -20 -111 -43 l-100 -42 -5 -165 -6 -164 -2
172 -2 171 73 30 c80 34 171 71 175 71 1 1 1 -369 0 -821z m-1765 782 c3 -11
1 -20 -4 -20 -5 0 -9 9 -9 20 0 11 2 20 4 20 2 0 6 -9 9 -20z m67 -21 c0 -5
-4 -9 -8 -9 -5 0 -9 7 -9 15 0 8 4 12 9 9 4 -3 8 -9 8 -15z m-103 -31 c-3 -8
-6 -5 -6 6 -1 11 2 17 5 13 3 -3 4 -12 1 -19z m-1967 -9 c0 -5 -6 -9 -12 -9
-9 0 -8 -3 2 -10 18 -11 9 -23 -12 -15 -9 4 -15 17 -15 29 0 18 4 22 18 19 11
-3 19 -9 19 -14z m4497 -86 c-2 -21 -4 -4 -4 37 0 41 2 58 4 38 2 -21 2 -55 0
-75z m-4560 75 c-3 -8 -6 -5 -6 6 -1 11 2 17 5 13 3 -3 4 -12 1 -19z m4192
-51 c-2 -2 -30 -18 -62 -35 -47 -25 -58 -28 -55 -14 3 16 107 66 117 56 2 -2
2 -6 0 -7z m-1999 -1 c0 -3 -4 -8 -10 -11 -5 -3 -10 -1 -10 4 0 6 5 11 10 11
6 0 10 -2 10 -4z m1228 -318 l-3 -313 -5 301 -5 302 -65 -29 c-35 -16 -68 -35
-72 -42 -5 -8 -8 -5 -8 8 0 15 17 27 73 52 39 17 75 32 80 32 4 1 6 -140 5
-311z m332 282 c0 -5 -18 -19 -40 -30 -44 -22 -51 -31 -20 -23 26 7 26 -3 -1
-18 -17 -9 -23 -8 -30 2 -16 25 -9 38 29 58 41 22 62 26 62 11z m-2234 -30
l193 0 -3 -27 c-2 -16 -5 -37 -6 -48 -1 -11 -4 -15 -6 -8 -4 9 -15 8 -46 -3
-31 -11 -103 -14 -317 -14 -311 0 -279 7 -392 -90 -75 -64 -200 -185 -181
-175 6 3 12 1 12 -5 0 -7 -7 -9 -17 -6 -22 9 -89 -54 -70 -67 8 -6 6 -7 -6 -3
-14 5 -57 -32 -178 -153 -87 -87 -159 -155 -159 -150 0 4 6 14 13 21 15 15 29
48 21 48 -13 0 -183 -183 -178 -192 3 -4 0 -7 -6 -6 -6 2 -87 -76 -180 -172
-92 -96 -171 -172 -175 -168 -18 17 1125 1184 1190 1215 23 11 60 13 164 8 74
-3 221 -5 327 -5z m2230 -5 c-11 -8 -22 -12 -25 -9 -6 6 19 24 34 24 6 -1 1
-7 -9 -15z m-931 -5 c3 -6 -1 -7 -9 -4 -18 7 -21 14 -7 14 6 0 13 -4 16 -10z
m1351 -15 c-20 -15 -36 -19 -36 -10 0 5 38 23 50 24 3 0 -4 -6 -14 -14z m391
-67 c-2 -18 -4 -6 -4 27 0 33 2 48 4 33 2 -15 2 -42 0 -60z m-2232 52 c3 -5
-1 -10 -9 -10 -9 0 -16 5 -16 10 0 6 4 10 9 10 6 0 13 -4 16 -10z m425 4 c0
-8 -19 -13 -24 -6 -3 5 1 9 9 9 8 0 15 -2 15 -3z m1370 -9 c0 -2 -9 -9 -20
-15 -16 -9 -18 -8 -14 5 5 13 34 22 34 10z m-1802 -15 c6 0 12 -5 12 -10 0
-12 -50 -2 -65 13 -7 6 -2 8 15 3 14 -3 31 -6 38 -6z m949 -123 c-2 -23 -3 -1
-3 48 0 50 1 68 3 42 2 -26 2 -67 0 -90z m-517 103 c0 -5 -2 -10 -4 -10 -3 0
-8 5 -11 10 -3 6 -1 10 4 10 6 0 11 -4 11 -10z m-1473 -46 c-3 -3 -12 -4 -19
-1 -8 3 -5 6 6 6 11 1 17 -2 13 -5z m2483 -13 c0 -5 -22 -25 -50 -45 -43 -31
-50 -33 -50 -17 0 12 16 29 43 45 46 27 57 31 57 17z m785 -66 c-3 -31 -9 -55
-11 -52 -3 2 -2 30 2 61 4 31 9 54 12 52 2 -3 1 -30 -3 -61z m-3495 49 c0 -9
-30 -36 -30 -27 0 4 -6 1 -13 -7 -17 -21 -48 -25 -41 -6 3 8 12 12 19 10 7 -3
18 4 25 15 9 19 40 30 40 15z m30 -24 c0 -5 -4 -10 -10 -10 -5 0 -10 5 -10 10
0 6 5 10 10 10 6 0 10 -4 10 -10z m907 -22 c-3 -7 -5 -2 -5 12 0 14 2 19 5 13
2 -7 2 -19 0 -25z m-802 12 c3 -5 1 -10 -4 -10 -6 0 -11 5 -11 10 0 6 2 10 4
10 3 0 8 -4 11 -10z m45 0 c0 -5 -7 -10 -15 -10 -8 0 -15 5 -15 10 0 6 7 10
15 10 8 0 15 -4 15 -10z m40 0 c0 -5 -4 -10 -10 -10 -5 0 -10 5 -10 10 0 6 5
10 10 10 6 0 10 -4 10 -10z m240 6 c0 -2 -7 -6 -15 -10 -8 -3 -15 -1 -15 4 0
6 7 10 15 10 8 0 15 -2 15 -4z m-1200 -209 c-107 -105 -181 -176 -164 -156 16
20 84 92 151 160 67 68 120 125 118 127 -2 2 -22 -9 -45 -25 -23 -15 -103 -60
-178 -98 l-136 -70 1 -50 c2 -49 -1 -45 -17 27 l-8 37 142 70 c77 39 182 95
231 125 50 29 92 52 94 50 3 -2 -83 -91 -189 -197z m1105 160 c-91 -48 -135
-68 -135 -59 0 4 20 15 45 25 25 11 45 25 45 33 0 7 6 11 14 8 8 -3 27 1 43
10 15 8 33 15 38 15 6 0 -17 -14 -50 -32z m-175 6 c0 -8 -8 -13 -17 -11 -12 2
-19 -4 -21 -19 -2 -13 -10 -23 -18 -23 -12 0 -12 4 2 25 15 23 15 25 0 25 -9
0 -16 -4 -16 -10 0 -14 -27 -13 -36 2 -5 8 -2 9 10 5 10 -4 19 -1 22 6 6 18
74 17 74 0z m2347 -45 c-2 -13 -4 -5 -4 17 -1 22 1 32 4 23 2 -10 2 -28 0 -40z
m-2640 -8 c-1 -11 -5 -20 -9 -20 -10 0 -10 4 -2 24 8 22 13 20 11 -4z m183 0
c0 -5 -4 -10 -10 -10 -5 0 -10 5 -10 10 0 6 5 10 10 10 6 0 10 -4 10 -10z
m3397 -22 c-3 -7 -5 -2 -5 12 0 14 2 19 5 13 2 -7 2 -19 0 -25z m-5187 7 c7
-9 10 -18 6 -22 -3 -4 -13 2 -21 13 -14 18 -14 18 -15 -3 0 -13 -4 -23 -9 -23
-5 0 -8 -11 -5 -25 2 -14 0 -25 -6 -25 -5 0 -10 12 -10 28 0 15 -3 37 -6 50
-6 19 -3 22 24 22 16 0 35 -7 42 -15z m1492 -27 c-7 -7 -12 -8 -12 -2 0 14 12
26 19 19 2 -3 -1 -11 -7 -17z m438 17 c0 -2 -15 -12 -32 -20 l-33 -16 25 20
c24 20 40 26 40 16z m-390 -29 c0 -3 -4 -8 -10 -11 -5 -3 -10 -1 -10 4 0 6 5
11 10 11 6 0 10 -2 10 -4z m1284 -271 c300 -151 542 -276 538 -279 -42 -25
-1042 -526 -1042 -522 0 3 62 37 138 76 75 38 184 95 242 125 58 31 175 92
260 136 220 112 242 126 213 126 -10 0 -21 -4 -24 -10 -4 -5 -19 -9 -33 -9
-15 0 -33 -9 -41 -20 -7 -11 -18 -17 -24 -13 -6 3 -14 -1 -17 -9 -3 -9 -15
-16 -25 -16 -10 0 -19 -5 -19 -11 0 -6 -6 -9 -14 -6 -8 3 -17 -1 -20 -9 -3 -8
-15 -14 -26 -14 -11 0 -20 -5 -20 -11 0 -6 -6 -9 -14 -6 -8 3 -20 -1 -26 -9
-7 -8 -18 -14 -25 -14 -8 0 -15 -5 -17 -10 -2 -6 -16 -12 -31 -14 -14 -1 -35
-9 -44 -18 -17 -14 -46 -28 -68 -33 -5 -1 -103 -48 -218 -104 l-207 -101 -178
91 c-97 50 -222 115 -277 144 -166 87 -489 249 -500 251 -5 0 -18 4 -28 9 -26
11 -34 -3 -11 -19 21 -16 249 -136 799 -423 77 -40 136 -73 131 -73 -9 0 -360
179 -751 383 -115 60 -221 114 -235 119 -22 8 -4 20 180 115 113 58 356 184
540 279 184 96 338 174 342 174 4 0 252 -124 552 -275z m890 259 c3 -8 2 -12
-4 -9 -6 3 -10 10 -10 16 0 14 7 11 14 -7z m-2220 -33 c3 -5 -5 -11 -19 -13
-28 -6 -35 8 -7 15 9 3 18 5 19 6 1 0 4 -3 7 -8z m196 -20 c0 -6 -4 -13 -10
-16 -5 -3 -10 1 -10 9 0 9 5 16 10 16 6 0 10 -4 10 -9z m-300 -15 c0 -3 -4 -8
-10 -11 -5 -3 -10 -1 -10 4 0 6 5 11 10 11 6 0 10 -2 10 -4z m330 -6 c-8 -5
-19 -10 -25 -10 -5 0 -3 5 5 10 8 5 20 10 25 10 6 0 3 -5 -5 -10z m-60 -27 c0
-6 -143 -74 -147 -70 -2 3 21 17 52 31 31 14 54 30 51 35 -3 5 5 8 19 7 14 0
25 -2 25 -3z m-1173 -129 c8 -27 27 -91 44 -142 l30 -93 -92 -100 c-50 -54
-94 -99 -96 -99 -7 0 13 25 74 90 28 30 61 67 73 82 l21 28 -37 122 c-20 68
-38 125 -40 127 -6 6 -114 -41 -114 -50 0 -4 23 3 52 16 29 13 54 22 56 20 7
-7 -9 -25 -18 -20 -5 3 -11 -4 -15 -15 -7 -23 -21 -26 -28 -7 -3 6 -6 2 -6
-10 -1 -22 -31 -34 -31 -13 0 5 -16 1 -35 -10 -45 -25 -48 -25 -41 3 3 12 3
16 0 9 -3 -6 -9 -10 -14 -7 -13 8 8 -72 55 -210 49 -143 55 -184 7 -53 -56
155 -96 292 -86 295 5 2 54 23 109 47 55 24 104 43 109 42 5 -1 15 -24 23 -52z
m1012 52 c-10 -9 -89 -46 -89 -41 0 6 72 44 84 45 5 0 7 -2 5 -4z m3968 -63
c-3 -10 -5 -4 -5 12 0 17 2 24 5 18 2 -7 2 -21 0 -30z m-4067 13 c0 -2 -7 -7
-16 -10 -8 -3 -12 -2 -9 4 6 10 25 14 25 6z m2677 -28 c-3 -7 -5 -2 -5 12 0
14 2 19 5 13 2 -7 2 -19 0 -25z m-2787 -23 c0 -2 -23 -16 -51 -31 -28 -14 -48
-20 -44 -14 4 7 26 21 49 31 46 21 46 21 46 14z m-110 -60 c0 -2 -10 -9 -22
-15 -22 -11 -22 -10 -4 4 21 17 26 19 26 11z m4407 -17 c-3 -8 -6 -5 -6 6 -1
11 2 17 5 13 3 -3 4 -12 1 -19z m-1510 -10 c-3 -8 -6 -5 -6 6 -1 11 2 17 5 13
3 -3 4 -12 1 -19z m830 -15 c-3 -10 -5 -4 -5 12 0 17 2 24 5 18 2 -7 2 -21 0
-30z m-4436 -116 c-8 -8 -11 -3 -11 19 1 25 2 27 11 11 8 -14 8 -22 0 -30z
m472 -12 c-3 -9 -8 -14 -10 -11 -3 3 -2 9 2 15 9 16 15 13 8 -4z m-529 -50 c5
-22 4 -26 -4 -15 -5 8 -10 24 -10 34 0 26 6 18 14 -19z m509 10 c-3 -9 -8 -14
-10 -11 -3 3 -2 9 2 15 9 16 15 13 8 -4z m-546 -37 c-3 -8 -6 -5 -6 6 -1 11 2
17 5 13 3 -3 4 -12 1 -19z m523 -8 c-6 -11 -13 -20 -16 -20 -2 0 0 9 6 20 6
11 13 20 16 20 2 0 0 -9 -6 -20z m-29 -53 c-10 -9 -11 -8 -5 6 3 10 9 15 12
12 3 -3 0 -11 -7 -18z m222 -21 c27 -17 599 -315 875 -457 111 -57 202 -107
202 -111 0 -13 -251 114 -845 427 -165 87 -254 129 -262 123 -21 -17 -158
-300 -147 -305 6 -2 20 -11 30 -19 15 -12 11 -11 -16 2 -19 9 -36 18 -38 19
-6 5 163 335 171 335 4 0 18 -6 30 -14z m2491 -158 c100 -200 97 -201 -10 -3
-42 77 -80 144 -84 149 -5 5 -63 -20 -132 -57 -188 -99 -824 -430 -905 -471
-40 -20 -73 -33 -73 -29 0 11 15 19 480 261 228 118 460 239 515 268 55 30
105 54 111 54 7 0 51 -78 98 -172z m-2761 87 c-3 -9 -8 -14 -10 -11 -3 3 -2 9
2 15 9 16 15 13 8 -4z m-53 -105 c-17 -33 -33 -60 -35 -60 -3 0 8 27 25 60 17
33 33 60 35 60 3 0 -8 -27 -25 -60z m1540 -224 c0 -2 -7 -7 -16 -10 -8 -3 -12
-2 -9 4 6 10 25 14 25 6z m1196 -11 c-11 -8 -25 -15 -30 -15 -6 1 0 7 14 15
32 19 40 18 16 0z m-2356 -40 c0 -3 -18 4 -40 15 -22 11 -40 23 -40 25 0 3 18
-4 40 -15 22 -11 40 -23 40 -25z m3337 -17 c-2 -13 -4 -3 -4 22 0 25 2 35 4
23 2 -13 2 -33 0 -45z m-3187 -63 c0 -3 -22 6 -50 20 -27 14 -50 28 -50 30 0
3 23 -6 50 -20 28 -14 50 -28 50 -30z m2025 25 c-3 -5 -12 -10 -18 -10 -7 0
-6 4 3 10 19 12 23 12 15 0z m1162 -12 c-3 -8 -6 -5 -6 6 -1 11 2 17 5 13 3
-3 4 -12 1 -19z m-1347 -82 c0 -2 -7 -7 -16 -10 -8 -3 -12 -2 -9 4 6 10 25 14
25 6z m188 -507 c-7 -5 -17 -9 -23 -9 -5 1 -2 5 8 11 12 7 18 24 19 62 l2 52
3 -54 c3 -37 0 -57 -9 -62z m480 -2115 c107 -31 187 -71 175 -87 -5 -7 -27
-52 -48 -102 -21 -49 -39 -91 -40 -93 -1 -1 -40 16 -86 38 -95 45 -186 60
-291 50 -113 -12 -178 -62 -178 -136 0 -72 59 -104 296 -164 177 -44 244 -72
303 -126 52 -46 66 -72 86 -163 19 -83 11 -141 -31 -228 -111 -230 -542 -282
-884 -108 -91 47 -89 38 -30 151 28 54 53 100 55 102 1 2 32 -13 67 -33 106
-58 201 -86 308 -92 116 -6 172 7 217 52 43 43 45 89 6 136 -36 42 -79 60
-253 104 -230 59 -341 121 -393 219 -33 63 -31 191 5 268 50 107 135 177 261
213 138 40 314 39 455 -1z m2189 5 c41 -10 98 -31 126 -46 71 -38 194 -164
235 -240 68 -128 90 -311 57 -466 -70 -333 -417 -539 -769 -458 -127 30 -222
78 -305 156 -117 111 -179 251 -188 425 -10 191 47 343 176 470 43 42 102 89
136 107 153 80 348 100 532 52z m1437 -12 c67 -25 137 -67 206 -126 l35 -29
-87 -88 -87 -89 -38 36 c-160 151 -384 143 -534 -18 -68 -72 -92 -144 -92
-268 0 -80 4 -112 22 -158 33 -84 87 -147 162 -187 62 -34 67 -35 179 -35 133
0 168 12 256 89 l51 45 87 -88 88 -88 -59 -51 c-147 -130 -340 -183 -542 -148
-110 19 -172 43 -263 103 -123 80 -207 205 -244 358 -23 97 -15 284 16 375 42
124 121 226 242 308 54 37 77 47 173 73 57 16 96 18 215 16 127 -3 154 -7 214
-30z m-9797 -4 c126 -42 224 -128 264 -232 30 -76 38 -236 15 -312 -34 -119
-136 -219 -264 -260 -56 -18 -99 -22 -267 -26 -110 -3 -198 -3 -195 0 3 3 44
7 90 8 110 2 145 14 70 23 -30 4 -74 8 -97 9 -45 2 -61 17 -18 17 25 0 36 19
13 21 -7 0 -65 3 -129 5 l-117 4 -4 -30 c-3 -16 -3 -43 0 -60 4 -26 9 -30 35
-30 44 0 20 -16 -29 -19 -8 -1 -11 -30 -9 -88 3 -105 3 -106 13 -99 5 3 9 -1
9 -9 0 -8 -5 -15 -11 -15 -6 0 -4 -5 4 -10 13 -8 13 -10 -1 -10 -9 0 -19 -10
-22 -22 l-6 -23 -21 23 c-28 29 -35 28 -38 -8 l-2 -30 126 0 126 0 -5 165 c-2
92 -1 165 4 165 5 0 9 -76 9 -170 l0 -170 -135 0 -135 0 0 589 c0 324 -3 597
-6 606 -6 15 19 16 332 13 311 -4 344 -6 401 -25z m1115 -61 c94 -220 289
-668 380 -872 55 -124 102 -231 105 -237 4 -10 -28 -13 -140 -13 l-145 0 -49
123 -49 122 -60 8 c-32 4 -160 6 -283 5 l-225 -3 -51 -125 -52 -125 -141 -3
-141 -3 81 183 c203 464 428 998 428 1017 0 8 47 11 153 11 l152 0 37 -88z
m1098 -228 c140 -174 274 -341 298 -371 l42 -55 0 371 0 371 135 0 135 0 0
-605 0 -605 -117 1 -118 0 -85 106 c-47 59 -152 190 -233 292 -230 288 -258
321 -268 321 -5 0 -9 -142 -9 -360 l0 -360 -135 0 -134 0 -1 605 0 605 118 0
118 0 254 -316z m1140 -295 c0 -553 -2 -611 -16 -605 -9 3 -69 6 -135 6 l-119
0 0 605 0 605 135 0 135 0 0 -611z m523 569 c187 -235 508 -640 527 -665 13
-18 26 -33 29 -33 3 0 4 166 1 370 l-5 370 143 0 142 0 0 -603 c0 -332 -2
-606 -4 -608 -2 -2 -58 -3 -124 -1 l-120 3 -235 297 c-321 407 -341 431 -351
432 -5 0 -7 -161 -5 -366 l4 -365 -133 -2 -132 -2 0 608 0 607 114 0 115 0 34
-42z m1347 30 c0 -5 0 -277 0 -605 l0 -598 -131 5 -132 5 -1 603 -1 603 133
-3 c72 -2 132 -6 132 -10z m2238 -100 l-3 -113 -95 -1 c-52 -1 -137 -2 -187
-3 l-93 -1 0 -489 0 -490 -135 -3 -135 -3 0 491 0 491 -61 7 c-34 3 -120 6
-190 6 l-129 0 0 110 0 110 515 0 516 0 -3 -112z m3012 -169 l0 -282 43 49
c100 115 336 375 401 442 l70 72 161 0 c158 -1 160 -1 138 -19 -13 -11 -33
-17 -45 -15 -19 4 -20 3 -5 -4 16 -7 -10 -40 -178 -222 -109 -118 -211 -229
-228 -247 l-30 -32 26 -33 c145 -186 487 -634 487 -638 0 -3 -71 -4 -158 -2
l-158 3 -179 234 c-98 129 -182 235 -186 235 -4 0 -42 -38 -85 -85 l-77 -86
-2 -72 c0 -40 -2 -107 -3 -149 l-2 -78 -134 0 -133 0 -2 605 -2 605 140 0 141
0 0 -281z m-10927 -526 c-7 -2 -21 -2 -30 0 -10 3 -4 5 12 5 17 0 24 -2 18 -5z
m-83 -87 c0 -2 -7 -6 -15 -10 -8 -3 -15 -1 -15 4 0 6 7 10 15 10 8 0 15 -2 15
-4z m81 -716 c20 -6 44 -19 54 -30 18 -20 18 -21 -2 -41 -19 -20 -22 -20 -51
-5 -47 24 -105 21 -140 -9 -63 -53 -66 -133 -7 -192 27 -27 41 -33 76 -33 30
0 50 6 66 22 l24 22 26 -26 c15 -15 22 -31 18 -38 -13 -22 -73 -40 -132 -40
-113 0 -183 62 -191 170 -11 146 112 241 259 200z m412 -20 c94 -64 113 -204
40 -291 -37 -43 -74 -59 -139 -59 -122 0 -196 72 -195 189 0 85 30 133 106
175 45 25 142 17 188 -14z m317 -93 l85 -119 3 122 3 121 37 -3 37 -3 3 -187
2 -188 -35 0 c-33 0 -40 6 -121 115 -47 63 -88 115 -91 115 -3 0 -3 -52 1
-115 l7 -115 -40 0 -41 0 0 191 0 190 32 -3 c29 -3 42 -16 118 -121z m530 88
l0 -35 -55 0 -55 0 0 -155 0 -155 -40 0 -40 0 0 155 0 155 -55 0 -55 0 0 34 0
34 150 1 150 2 0 -36z m285 16 c67 -31 79 -51 76 -137 -1 -41 -29 -85 -61 -96
-11 -3 -8 -13 12 -39 14 -19 33 -46 43 -61 l17 -28 -41 0 c-38 0 -43 3 -77 55
-34 51 -40 55 -75 55 l-39 0 0 -56 0 -55 -37 3 -38 3 -3 188 -3 187 93 0 c69
0 103 -5 133 -19z m422 0 c107 -49 138 -211 57 -301 -43 -48 -88 -64 -164 -58
-106 8 -164 74 -165 189 0 55 4 72 27 106 50 76 156 104 245 64z m255 -138 l3
-158 88 2 87 2 0 -34 0 -35 -125 0 -124 0 -3 186 c-2 102 -1 188 1 190 2 2 19
4 37 4 l33 0 3 -157z m602 147 c111 -25 165 -140 121 -255 -31 -83 -104 -115
-261 -115 l-74 0 0 190 0 190 88 0 c48 0 105 -5 126 -10z m484 -22 l-3 -33
-98 -3 -98 -3 3 -42 3 -42 83 -3 82 -3 0 -29 0 -29 -82 -3 c-89 -3 -97 -9 -84
-64 6 -23 9 -24 101 -24 l95 0 0 -35 0 -35 -135 0 -135 0 0 190 0 190 136 0
135 0 -3 -32z m312 -158 l0 -190 -40 0 -40 0 0 190 0 190 40 0 40 0 0 -190z
m247 76 l88 -114 3 114 3 114 39 0 40 0 0 -190 0 -190 -32 0 c-30 0 -40 10
-118 115 -47 63 -89 115 -93 115 -4 0 -7 -51 -6 -112 l2 -113 -36 -3 -36 -3
-3 186 c-2 103 -1 189 1 191 2 2 17 4 32 4 23 0 41 -17 116 -114z m357 -23
c28 -73 53 -133 56 -133 3 0 29 61 58 135 l54 135 39 0 39 0 -20 -47 c-10 -27
-45 -112 -77 -191 l-58 -142 -40 2 -39 3 -73 175 c-40 96 -73 181 -73 188 0 9
12 12 41 10 l41 -3 52 -132z m564 105 l-3 -33 -92 -3 -93 -3 0 -44 0 -45 80 0
80 0 0 -30 0 -29 -82 -3 -83 -3 -3 -42 -3 -43 101 0 100 0 0 -35 0 -35 -135 0
-135 0 0 190 0 190 136 0 135 0 -3 -32z m232 -86 l85 -117 3 118 3 117 39 0
40 0 0 -190 0 -190 -35 0 c-33 0 -40 7 -122 117 l-88 116 -3 -116 -3 -117 -34
0 -35 0 0 53 c0 30 -3 115 -7 190 l-6 137 39 -1 c38 0 41 -3 124 -117z m536
86 c-3 -32 -4 -33 -60 -36 l-56 -3 0 -154 0 -155 -40 0 -40 0 0 155 0 155 -60
0 -60 0 0 35 0 35 160 0 160 0 -4 -32z m305 -150 c41 -100 76 -185 77 -190 2
-4 -14 -8 -36 -8 -37 0 -41 3 -56 40 l-16 40 -86 0 -86 0 -15 -40 c-15 -37
-19 -40 -56 -40 -27 0 -38 4 -34 13 3 6 36 84 72 172 87 208 79 195 124 195
l38 0 74 -182z m382 158 c15 -11 35 -32 43 -47 30 -58 9 -160 -36 -174 -28 -9
-25 -20 15 -76 19 -27 35 -51 35 -54 0 -3 -18 -5 -40 -5 -37 0 -42 4 -72 49
-29 43 -38 50 -71 53 -21 2 -40 2 -43 -1 -2 -2 -4 -26 -4 -53 l0 -48 -40 0
-40 0 0 191 0 191 113 -4 c88 -3 118 -7 140 -22z m217 -166 l0 -190 -40 0 -40
0 0 190 0 190 40 0 40 0 0 -190z m367 163 c125 -81 118 -276 -13 -338 -45 -21
-141 -22 -180 -2 -38 20 -80 65 -93 100 -17 44 -13 124 8 165 36 71 90 102
176 102 49 0 69 -5 102 -27z m393 -58 c25 -47 47 -85 50 -85 3 0 25 38 50 83
43 78 47 82 83 85 20 2 37 1 37 -1 0 -3 -29 -57 -65 -121 -63 -112 -65 -118
-65 -186 l0 -70 -40 0 -40 0 0 64 c0 60 -4 71 -58 168 -94 165 -90 148 -40
148 l43 0 45 -85z m690 50 l0 -35 -55 0 -55 0 0 -155 0 -155 -40 0 -40 0 0
155 0 155 -55 0 -55 0 0 35 0 35 150 0 150 0 0 -35z m264 26 c49 -12 94 -55
102 -99 9 -45 -11 -106 -41 -130 -14 -11 -25 -23 -25 -27 0 -4 16 -30 35 -56
19 -27 35 -51 35 -54 0 -3 -19 -5 -42 -5 -41 1 -44 3 -76 56 -32 52 -36 55
-70 52 l-37 -3 -3 -52 -3 -53 -40 0 -39 0 0 183 c0 101 3 187 7 190 9 10 151
8 197 -2z m454 -187 l79 -184 -41 0 c-38 0 -42 3 -58 40 l-17 40 -84 0 -84 0
-16 -40 c-14 -36 -19 -40 -51 -40 -20 0 -36 5 -36 10 0 6 30 80 66 166 36 86
69 166 74 178 7 18 14 21 48 18 l40 -4 80 -184z m412 170 c0 -18 -32 -67 -100
-154 -55 -70 -100 -131 -100 -135 0 -4 47 -5 105 -3 l105 3 0 -32 0 -33 -160
0 -160 0 0 25 c0 14 14 41 33 62 18 21 55 67 82 103 26 36 60 77 73 93 14 15
22 27 16 28 -5 0 -51 0 -101 -1 l-93 -1 0 35 0 36 150 0 150 0 0 -26z m265 16
c3 -5 39 -90 79 -189 l74 -181 -40 3 c-37 2 -42 5 -53 37 l-12 35 -86 3 -86 3
-21 -41 c-18 -35 -25 -40 -55 -40 -19 0 -35 3 -35 6 0 4 31 79 69 168 38 89
72 171 75 184 6 18 15 22 46 22 21 0 41 -4 45 -10z m467 -14 c29 -19 51 -75
41 -104 -3 -9 -15 -27 -25 -39 -19 -21 -19 -21 0 -27 44 -14 55 -99 19 -142
-27 -32 -80 -43 -209 -43 l-88 -1 0 191 0 191 118 -4 c91 -3 123 -8 144 -22z
m214 -163 l-4 -188 -36 -3 -36 -3 0 190 0 191 40 0 39 0 -3 -187z m158 181
c14 -5 16 -28 16 -155 l0 -149 90 0 90 0 0 -35 0 -35 -130 0 -130 0 0 183 c0
101 3 187 7 190 8 9 36 9 57 1z m328 -184 l-3 -185 -34 -3 -35 -3 0 191 0 191
38 -3 37 -3 -3 -185z m299 180 c98 -18 149 -77 149 -172 0 -92 -34 -151 -105
-178 -16 -7 -78 -14 -137 -17 l-108 -6 0 192 0 191 74 0 c40 0 98 -5 127 -10z
m874 -14 c75 -32 115 -123 95 -216 -24 -104 -90 -140 -260 -140 l-80 0 0 191
0 192 107 -7 c59 -4 121 -13 138 -20z m-385 -162 c41 -97 77 -180 78 -185 2
-5 -14 -9 -36 -9 -36 0 -40 3 -55 40 l-15 40 -85 0 -85 0 -16 -40 c-15 -37
-18 -40 -56 -40 l-41 0 15 29 c8 15 33 73 54 127 22 54 51 125 65 157 25 55
27 57 64 57 l38 0 75 -176z m7479 -1294 c53 -165 219 -322 396 -375 22 -7 40
-18 40 -25 0 -7 -27 -22 -60 -34 -161 -58 -275 -159 -350 -308 -25 -49 -45
-99 -45 -109 0 -11 -7 -19 -17 -19 -13 0 -23 17 -37 61 -21 66 -74 154 -131
218 -61 67 -236 171 -289 171 -9 0 -16 9 -16 20 0 13 7 20 19 20 33 0 194 87
248 135 78 69 151 188 187 307 10 33 32 7 55 -62z"/>
<path d="M13160 12295 c-10 -12 -10 -15 3 -15 19 0 31 16 18 24 -5 3 -14 -1
-21 -9z"/>
<path d="M12881 12231 c-35 -22 -68 -45 -75 -52 -6 -7 0 -6 14 3 14 8 49 30
78 47 28 18 52 35 52 37 0 6 -1 6 -69 -35z"/>
<path d="M12720 12121 c-36 -27 -99 -85 -140 -128 l-75 -78 85 81 c47 44 111
100 143 123 50 38 64 51 55 51 -2 0 -32 -22 -68 -49z"/>
<path d="M13833 12165 c-25 -10 -31 -18 -26 -31 5 -14 2 -16 -20 -10 -23 5
-27 3 -27 -14 0 -12 -5 -18 -10 -15 -6 3 -19 3 -31 0 -15 -5 -18 -10 -9 -20 9
-11 6 -13 -19 -10 -29 4 -30 3 -24 -28 5 -26 3 -30 -8 -19 -19 18 -29 15 -29
-9 0 -15 -5 -19 -15 -15 -12 4 -15 -2 -15 -28 0 -19 6 -37 13 -39 7 -3 5 -6
-5 -6 -20 -1 -24 -16 -8 -26 6 -3 10 -1 10 4 0 6 7 11 15 11 9 0 15 9 15 24 0
19 4 23 20 19 22 -6 29 21 8 31 -9 4 -8 5 2 5 39 -3 50 2 50 21 0 11 7 20 15
20 8 0 15 7 15 15 0 8 9 15 21 15 11 0 17 5 14 10 -3 6 5 14 19 20 23 8 32 26
27 54 -1 5 5 4 13 -3 21 -18 33 -10 27 16 -6 20 -8 21 -38 8z"/>
<path d="M13780 11947 c0 -20 16 -31 25 -17 4 6 10 8 15 5 5 -3 11 -1 14 4 4
5 2 12 -3 15 -5 4 -13 2 -16 -4 -5 -8 -11 -7 -21 1 -11 9 -14 8 -14 -4z"/>
<path d="M13924 11854 c6 -23 4 -25 -15 -19 -14 5 -19 4 -15 -4 11 -18 29 -13
56 16 14 15 20 24 13 20 -6 -4 -14 -3 -18 3 -13 21 -27 10 -21 -16z"/>
<path d="M13970 11690 c0 -12 26 -31 33 -23 12 11 7 21 -13 26 -11 3 -20 2
-20 -3z"/>
<path d="M13930 11640 c0 -13 7 -20 20 -20 11 0 20 4 20 10 0 5 -9 14 -20 20
-17 9 -20 8 -20 -10z"/>
<path d="M13895 11610 c-9 -15 -1 -23 21 -18 15 3 16 4 1 16 -11 9 -17 10 -22
2z"/>
<path d="M14515 11489 c5 -12 -2 -20 -22 -27 -15 -6 -21 -11 -12 -11 17 -1 79
27 79 36 0 3 -6 3 -14 0 -7 -3 -19 0 -25 6 -9 9 -11 8 -6 -4z"/>
<path d="M13190 12026 c0 -2 7 -6 15 -10 8 -3 15 -1 15 4 0 6 -7 10 -15 10 -8
0 -15 -2 -15 -4z"/>
<path d="M13347 11919 c7 -7 15 -10 18 -7 3 3 -2 9 -12 12 -14 6 -15 5 -6 -5z"/>
<path d="M13347 11880 c3 -11 12 -20 19 -20 12 0 12 4 2 20 -7 11 -16 20 -19
20 -4 0 -5 -9 -2 -20z"/>
<path d="M13350 11702 c0 -25 -10 -28 -28 -10 -9 9 -12 9 -12 -1 0 -7 9 -15
20 -18 11 -3 20 -9 20 -14 0 -5 4 -9 8 -9 5 0 7 14 6 31 -2 35 -14 53 -14 21z"/>
<path d="M13308 11636 c-5 -25 6 -55 14 -40 8 17 8 64 -1 64 -5 0 -11 -11 -13
-24z"/>
<path d="M13285 11640 c-3 -5 -1 -10 4 -10 6 0 11 5 11 10 0 6 -2 10 -4 10 -3
0 -8 -4 -11 -10z"/>
<path d="M13275 11600 c3 -5 8 -10 11 -10 2 0 4 5 4 10 0 6 -5 10 -11 10 -5 0
-7 -4 -4 -10z"/>
<path d="M16095 11100 c-4 -6 -1 -9 6 -8 7 2 13 -2 14 -9 0 -6 4 -15 9 -20 5
-4 6 -3 3 4 -4 6 -3 13 3 15 6 2 1 9 -9 15 -13 8 -22 9 -26 3z"/>
<path d="M16175 11045 c17 -13 35 -24 40 -25 6 0 -3 11 -20 25 -16 13 -34 24
-40 25 -5 0 4 -11 20 -25z"/>
<path d="M16010 11564 c0 -8 5 -12 10 -9 6 3 10 10 10 16 0 5 -4 9 -10 9 -5 0
-10 -7 -10 -16z"/>
<path d="M16070 11550 c0 -5 4 -10 9 -10 5 0 18 -3 28 -6 16 -5 16 -4 -1 10
-23 18 -36 20 -36 6z"/>
<path d="M16010 11525 c0 -8 2 -15 4 -15 2 0 6 7 10 15 3 8 1 15 -4 15 -6 0
-10 -7 -10 -15z"/>
<path d="M16900 11381 c0 -6 4 -13 10 -16 6 -3 7 1 4 9 -7 18 -14 21 -14 7z"/>
<path d="M16277 10703 c-13 -12 -7 -23 11 -22 10 0 12 3 4 6 -6 2 -10 9 -6 14
6 10 0 12 -9 2z"/>
<path d="M14426 11232 c-3 -6 -1 -14 5 -17 15 -10 25 3 12 16 -7 7 -13 7 -17
1z"/>
<path d="M14120 10606 c0 -8 5 -18 10 -21 6 -3 10 3 10 14 0 12 -4 21 -10 21
-5 0 -10 -6 -10 -14z"/>
<path d="M15790 9909 c0 -5 5 -7 10 -4 6 3 10 8 10 11 0 2 -4 4 -10 4 -5 0
-10 -5 -10 -11z"/>
<path d="M12170 9070 c0 -13 11 -13 30 0 12 8 11 10 -7 10 -13 0 -23 -4 -23
-10z"/>
<path d="M11927 8886 c-79 -45 -85 -55 -10 -17 34 17 64 35 68 41 8 13 8 13
-58 -24z"/>
<path d="M16591 8424 c0 -11 3 -14 6 -6 3 7 2 16 -1 19 -3 4 -6 -2 -5 -13z"/>
<path d="M13896 9664 c-5 -14 -4 -15 9 -4 17 14 19 20 6 20 -5 0 -12 -7 -15
-16z"/>
<path d="M14793 9782 c-56 -23 -59 -28 -24 -40 28 -10 31 -9 31 10 0 16 4 19
23 14 12 -3 25 -6 30 -6 12 0 8 -38 -5 -43 -7 -3 23 -21 67 -42 123 -57 123
-57 135 -35 6 11 18 20 28 20 9 0 22 12 29 26 10 22 9 26 -12 36 -18 8 -28 8
-39 -1 -8 -7 -24 -10 -36 -6 -20 6 -25 -2 -21 -32 2 -17 -30 -16 -53 2 -17 13
-17 15 -3 15 10 0 14 5 11 14 -3 8 5 21 17 30 l22 15 -27 11 c-33 12 -56 13
-56 1 0 -5 -9 -11 -19 -14 -18 -4 -37 16 -33 36 3 11 -19 8 -65 -11z"/>
<path d="M15195 9640 c-4 -6 -14 -9 -23 -8 -12 2 -16 -3 -14 -15 2 -10 -1 -24
-7 -31 -8 -9 1 -16 33 -28 l43 -16 -1 27 c-1 14 -5 32 -10 39 -6 10 -1 11 18
6 31 -7 65 14 44 27 -18 12 -76 11 -83 -1z"/>
<path d="M15354 9575 c-4 -10 -13 -13 -25 -10 -14 5 -19 1 -19 -14 0 -11 -5
-23 -11 -27 -6 -4 1 -13 18 -23 46 -28 61 -31 59 -13 0 9 5 17 12 18 6 1 17 2
22 3 6 0 10 10 10 20 0 10 8 22 18 26 14 6 12 9 -13 21 -40 18 -64 17 -71 -1z"/>
<path d="M15520 9510 c0 -6 -6 -10 -12 -9 -37 5 -49 -1 -43 -21 4 -14 1 -22
-11 -27 -10 -4 -19 -2 -22 5 -2 7 -8 10 -13 6 -5 -3 -9 0 -9 5 0 6 -4 11 -10
11 -26 0 -4 -20 49 -44 68 -30 71 -31 71 -11 0 8 9 15 20 15 13 0 17 5 14 14
-4 10 2 16 18 18 23 3 33 33 11 33 -6 0 -15 3 -19 8 -11 11 -44 9 -44 -3z"/>
<path d="M15652 9447 c-21 -6 -31 -15 -28 -24 3 -8 -2 -13 -14 -13 -11 0 -20
-5 -20 -12 0 -6 -10 -3 -22 8 -14 12 -18 13 -10 3 6 -9 9 -19 6 -22 -4 -4 37
-27 91 -52 l98 -45 39 20 c22 11 43 18 47 15 5 -2 30 3 57 12 45 15 47 17 25
27 -17 7 -25 6 -32 -5 -7 -11 -9 -11 -9 4 0 19 -32 35 -92 47 -34 7 -37 5 -35
-14 1 -16 -3 -20 -17 -18 -13 3 -17 -1 -13 -12 4 -11 -1 -18 -19 -22 -29 -7
-37 -2 -41 27 -3 18 0 20 23 15 15 -4 23 -3 20 3 -4 5 3 12 14 16 21 7 24 13
12 31 -11 18 -44 23 -80 11z m175 -93 c-3 -3 -12 -4 -19 -1 -8 3 -5 6 6 6 11
1 17 -2 13 -5z m33 -8 c0 -3 -4 -8 -10 -11 -5 -3 -10 -1 -10 4 0 6 5 11 10 11
6 0 10 -2 10 -4z"/>
<path d="M14358 9597 c-27 -11 -48 -24 -48 -28 0 -15 60 -21 72 -7 61 66 57
71 -24 35z"/>
<path d="M14502 9573 c-7 -11 -15 -14 -28 -8 -36 15 -54 15 -48 1 3 -8 1 -17
-5 -21 -18 -11 -12 -22 18 -35 32 -13 51 -7 51 16 0 18 11 18 36 -2 13 -11 15
-17 7 -20 -21 -9 -15 -22 15 -37 43 -22 76 -31 68 -18 -4 6 -2 11 3 11 6 0 11
-7 11 -15 0 -8 9 -19 19 -24 15 -9 20 -7 24 9 5 21 41 28 52 9 5 -7 14 -3 26
10 11 12 26 21 34 21 8 0 15 5 15 11 0 6 -7 9 -15 5 -8 -3 -15 -1 -15 4 0 13
-35 22 -64 14 -14 -3 -26 -12 -26 -20 0 -18 -18 -17 -50 1 -22 12 -23 14 -7
20 13 6 15 11 7 20 -8 9 -8 15 0 20 17 11 1 25 -30 25 -16 0 -32 5 -35 10 -10
16 -53 12 -63 -7z m108 -19 c0 -2 -11 -4 -25 -4 -14 0 -25 4 -25 9 0 4 11 6
25 3 14 -2 25 -6 25 -8z"/>
<path d="M14876 9425 c-3 -8 -17 -15 -31 -15 -18 0 -25 -5 -25 -19 0 -10 -8
-22 -17 -26 -15 -5 -11 -11 22 -27 26 -14 40 -17 43 -9 2 6 12 11 22 11 13 0
17 5 13 20 -3 13 0 22 11 25 9 3 24 7 33 10 12 4 8 10 -20 25 -44 24 -43 24
-51 5z"/>
<path d="M15008 9353 c-16 -2 -29 -10 -29 -16 -1 -7 -2 -19 -3 -27 0 -8 -9
-16 -20 -18 -10 -2 -16 0 -13 5 4 5 0 10 -8 10 -27 0 -16 -13 31 -36 27 -14
49 -20 53 -14 3 5 14 12 24 16 9 3 17 12 17 19 0 8 15 19 33 26 l32 13 -34 14
c-18 8 -38 14 -45 14 -6 -1 -23 -4 -38 -6z"/>
<path d="M15183 9291 c-5 -3 -12 -14 -16 -23 -4 -10 -13 -15 -25 -11 -18 4
-31 -17 -32 -50 0 -11 91 -49 104 -43 6 2 3 5 -6 5 -17 1 -22 10 -15 29 1 4 5
6 10 5 4 -2 7 3 7 10 0 7 9 18 20 25 11 7 20 18 20 26 0 16 -52 37 -67 27z"/>
<path d="M15319 9242 c-1 -4 -2 -16 -3 -27 -1 -14 -8 -20 -26 -20 -15 0 -26
-7 -28 -18 -2 -9 -10 -17 -18 -17 -25 0 -15 -16 21 -33 45 -21 66 -22 59 -2
-4 9 0 16 7 16 19 2 22 1 43 -7 14 -5 17 -4 12 4 -4 7 -2 13 3 13 13 2 28 5
39 9 11 4 25 8 40 9 6 0 12 6 12 12 0 6 -9 8 -20 4 -11 -4 -20 -2 -20 4 0 15
-119 67 -121 53z"/>
<path d="M13965 9454 c-33 -11 -35 -13 -10 -9 24 3 33 -1 40 -17 6 -12 28 -27
49 -35 45 -15 75 -11 35 5 -15 6 -29 20 -32 32 -5 19 -3 20 11 8 9 -7 20 -17
23 -22 8 -10 39 -1 39 12 0 12 -67 42 -93 41 -12 0 -40 -7 -62 -15z"/>
<path d="M14140 9410 c13 -9 13 -12 -2 -24 -23 -17 -23 -23 3 -36 15 -8 24 -8
34 0 14 12 31 -2 21 -18 -3 -5 17 -18 44 -30 73 -32 95 -36 113 -18 8 9 23 13
31 10 9 -3 16 -2 16 3 0 5 -25 21 -55 36 -55 27 -91 35 -81 18 7 -11 -22 -36
-31 -28 -3 4 0 14 7 22 12 14 10 15 -13 10 -16 -5 -27 -3 -27 3 0 6 10 12 23
15 19 3 15 7 -23 25 -48 23 -89 31 -60 12z"/>
<path d="M14423 9273 c-12 -2 -27 -10 -33 -18 -9 -11 -5 -17 22 -28 49 -20 91
-29 84 -18 -4 5 -2 12 3 15 5 4 12 2 16 -4 3 -5 12 -10 18 -10 8 0 7 3 -2 9
-7 5 -11 13 -7 19 5 8 -67 46 -77 41 -1 -1 -12 -4 -24 -6z"/>
<path d="M14556 9197 l-30 -13 53 -28 c39 -20 56 -24 66 -16 7 6 19 8 27 5 9
-4 15 0 15 11 0 10 -17 24 -41 35 -48 22 -52 22 -90 6z"/>
<path d="M14721 9119 c-30 -12 -22 -21 41 -48 31 -13 48 -16 50 -9 3 8 13 8
37 0 29 -10 32 -9 29 6 -3 19 -82 62 -113 61 -11 0 -31 -5 -44 -10z"/>
<path d="M14886 9049 l-29 -17 51 -26 c55 -28 82 -33 82 -15 0 6 10 10 23 9
65 -6 50 10 -49 48 -47 18 -50 19 -78 1z"/>
<path d="M12055 9378 c-70 -38 -57 -135 21 -154 59 -15 130 57 104 105 -6 12
-17 21 -25 21 -8 0 -14 3 -14 8 3 19 -2 25 -11 12 -8 -13 -10 -12 -10 3 0 20
-33 23 -65 5z"/>
<path d="M13830 9255 c0 -9 6 -12 15 -9 8 4 15 7 15 9 0 2 -7 5 -15 9 -9 3
-15 0 -15 -9z"/>
<path d="M14880 8563 c0 -21 3 -24 9 -14 5 8 7 20 4 28 -8 21 -13 15 -13 -14z"/>
<path d="M12880 8803 c-32 -6 -45 -18 -22 -21 68 -7 232 -7 232 0 0 5 6 8 13
7 6 -1 30 0 52 1 31 3 25 5 -30 10 -78 8 -207 10 -245 3z"/>
<path d="M13475 8790 c-34 -9 -32 -11 8 -14 16 -1 27 3 27 11 0 7 -1 12 -2 12
-2 -1 -16 -5 -33 -9z"/>
<path d="M12216 8165 c-3 -8 -3 -15 0 -15 3 0 12 7 20 15 13 13 13 15 1 15 -8
0 -17 -7 -21 -15z"/>
<path d="M13405 8401 c-6 -5 -89 -49 -185 -99 -706 -363 -691 -355 -693 -368
0 -5 87 -53 194 -107 229 -116 325 -167 515 -270 206 -112 176 -110 334 -24
129 70 300 161 458 242 39 20 72 43 72 51 0 8 7 14 16 14 8 0 12 -4 9 -10 -3
-6 1 -7 10 -4 9 4 15 14 14 23 -3 31 1 42 12 35 6 -3 9 -14 6 -24 -4 -17 1
-16 49 7 29 15 51 30 48 35 -3 4 2 5 10 2 15 -6 76 21 76 34 0 4 -53 33 -118
65 -64 31 -178 89 -252 128 -306 160 -541 279 -553 279 -7 0 -17 -4 -22 -9z
m45 -66 c0 -3 -9 -1 -20 5 -11 6 -18 15 -15 21 6 9 35 -12 35 -26z m19 8 c0
-25 -1 -26 -9 -8 -12 27 -12 35 0 35 6 0 10 -12 9 -27z m-36 -35 c4 -16 3 -17
-9 -7 -11 9 -14 7 -14 -10 0 -22 -20 -30 -21 -8 0 6 -4 1 -10 -11 -5 -13 -7
-28 -3 -33 3 -5 -2 -9 -11 -9 -9 0 -13 5 -10 10 3 6 0 10 -9 10 -8 0 -16 -5
-18 -12 -5 -14 -48 -19 -48 -5 0 5 9 7 21 4 18 -5 20 -2 14 24 -4 18 -2 29 4
29 6 0 8 -7 5 -15 -4 -8 -1 -15 5 -15 6 0 11 7 11 15 0 8 7 15 16 15 9 0 14 8
13 18 -2 27 -1 29 30 24 18 -2 31 -11 34 -24z m142 -6 c-8 -8 -25 10 -19 20 4
6 9 5 15 -3 4 -7 6 -15 4 -17z m35 -2 c0 -5 -2 -10 -4 -10 -3 0 -8 5 -11 10
-3 6 -1 10 4 10 6 0 11 -4 11 -10z m-49 -10 c31 0 24 -36 -8 -46 -21 -5 -24
-8 -10 -11 9 -3 17 -8 17 -13 0 -4 -9 -6 -20 -3 -14 4 -20 0 -20 -12 0 -14 -7
-16 -30 -13 -31 5 -41 -6 -15 -16 26 -10 16 -22 -16 -20 -38 3 -65 24 -30 24
17 0 21 4 17 18 -5 15 -1 18 31 15 21 -1 30 0 21 3 -26 8 -23 44 3 44 17 0 20
5 16 21 -4 15 -2 19 10 15 8 -3 23 -6 34 -6z m178 -62 c1 7 6 10 11 7 19 -12
10 -24 -15 -19 -18 3 -25 0 -25 -12 0 -10 -5 -14 -15 -11 -8 4 -17 2 -20 -3
-4 -6 3 -10 14 -10 12 0 21 -6 21 -14 0 -9 -7 -12 -20 -9 -14 4 -20 0 -20 -10
0 -10 -6 -13 -20 -10 -13 4 -20 0 -20 -10 0 -20 -37 -28 -51 -11 -9 11 -6 14
16 14 22 0 25 3 16 13 -14 17 -4 27 25 27 17 0 22 4 18 15 -4 9 -1 15 7 15 8
0 5 6 -7 15 -17 13 -16 14 18 8 30 -4 39 -2 45 12 6 18 7 17 14 -1 4 -10 8
-13 8 -6z m-444 -27 c5 -1 5 -5 -1 -11 -11 -11 -44 -3 -44 10 0 5 8 7 18 5 9
-2 21 -4 27 -4z m-221 -7 c9 -3 16 -11 16 -16 0 -7 -5 -6 -13 1 -8 6 -17 8
-20 4 -4 -3 -7 -1 -7 5 0 14 2 14 24 6z m786 -32 c0 -15 2 -15 10 -2 8 13 10
13 10 -1 0 -9 -7 -19 -15 -23 -8 -3 -15 -13 -15 -21 0 -12 -6 -15 -19 -10 -16
5 -20 0 -23 -22 -3 -25 -7 -28 -37 -28 -19 0 -36 -6 -38 -12 -3 -7 0 -13 7
-13 6 0 8 5 5 10 -3 6 -2 10 3 10 6 0 13 -7 16 -15 8 -21 -22 -31 -46 -16 -12
7 -17 8 -13 2 3 -6 1 -11 -5 -11 -6 0 -8 -4 -5 -10 3 -6 -5 -10 -19 -10 -13 0
-27 -6 -29 -12 -3 -8 -6 -7 -6 4 -1 10 8 18 22 20 16 2 21 9 19 26 -2 12 0 22
5 21 23 -4 35 2 29 16 -4 11 1 15 19 15 21 0 25 5 25 29 0 29 1 29 32 20 40
-11 38 -11 38 2 0 5 -4 8 -9 5 -5 -3 -12 1 -15 10 -9 23 -7 34 5 34 5 0 7 -4
4 -10 -3 -5 1 -10 9 -10 9 0 15 3 15 8 -3 16 2 23 11 17 6 -3 10 -14 10 -23z
m-414 -26 c24 -18 13 -31 -14 -17 -19 10 -20 8 -16 -14 2 -14 0 -25 -6 -25 -5
0 -10 6 -10 13 0 7 -9 13 -19 13 -15 0 -17 -3 -9 -13 8 -10 7 -12 -6 -7 -9 3
-16 13 -16 21 0 10 6 13 16 9 11 -4 18 1 21 14 6 23 31 26 59 6z m-198 -21
c-3 -3 -9 2 -12 12 -6 14 -5 15 5 6 7 -7 10 -15 7 -18z m734 -11 c34 -3 38 -5
38 -24 0 -20 -9 -24 -43 -20 -14 1 -16 -4 -11 -24 5 -22 3 -26 -15 -26 -14 0
-21 -6 -21 -20 0 -11 -5 -20 -11 -20 -5 0 -8 4 -4 9 3 5 1 12 -4 15 -5 3 -11
0 -14 -7 -2 -7 -16 -13 -31 -15 -20 -1 -26 3 -26 18 0 16 5 19 24 14 21 -5 23
-3 18 21 -4 25 -3 27 18 20 20 -6 22 -4 17 14 -4 18 -2 21 14 16 16 -5 19 -1
19 27 0 25 3 29 10 18 5 -8 15 -15 22 -16z m-777 6 c3 -6 -1 -7 -9 -4 -18 7
-21 14 -7 14 6 0 13 -4 16 -10z m382 -25 c0 -9 -5 -15 -11 -14 -24 3 -37 -1
-32 -10 7 -10 -24 -25 -33 -16 -3 3 1 10 8 14 11 7 11 10 0 14 -11 5 -11 6 1
6 31 -2 40 1 40 16 0 8 6 12 13 9 8 -3 14 -11 14 -19z m-612 5 c3 -5 1 -10 -4
-10 -6 0 -11 5 -11 10 0 6 2 10 4 10 3 0 8 -4 11 -10z m645 -12 c0 -12 -3 -18
-7 -14 -11 10 -12 36 -2 36 5 0 9 -10 9 -22z m-417 -3 c-3 -9 -8 -14 -10 -11
-3 3 -2 9 2 15 9 16 15 13 8 -4z m165 -14 c5 -15 -7 -14 -38 4 l-25 14 30 -3
c16 -2 31 -8 33 -15z m-222 -23 c4 -7 3 -8 -4 -4 -7 4 -12 2 -12 -3 0 -6 -7
-11 -15 -11 -8 0 -15 7 -15 15 0 18 36 20 46 3z m1012 -13 c3 -3 1 -10 -5 -16
-8 -8 -22 -5 -49 10 l-39 21 44 -5 c24 -2 46 -7 49 -10z m-618 -3 c0 -5 -10
-8 -22 -8 -15 1 -23 -5 -22 -15 1 -9 -5 -16 -12 -16 -9 0 -10 5 -4 18 7 12 6
19 -3 22 -6 3 5 6 26 6 20 1 37 -3 37 -7z m-453 -28 c-9 -9 -28 6 -21 18 4 6
10 6 17 -1 6 -6 8 -13 4 -17z m643 -13 c0 -13 -8 -18 -25 -18 -14 0 -25 3 -25
8 0 5 9 9 20 9 14 0 18 5 13 17 -4 11 -3 14 5 9 7 -4 12 -15 12 -25z m380 3
c0 -16 -9 -18 -29 -5 -7 5 -11 14 -7 19 9 15 36 4 36 -14z m-55 -14 c3 -5 1
-10 -4 -10 -6 0 -11 5 -11 10 0 6 2 10 4 10 3 0 8 -4 11 -10z m-200 -12 c35
-1 50 -17 18 -19 -63 -4 -68 -3 -71 15 -2 11 0 16 7 12 5 -4 26 -7 46 -8z
m-195 -8 c22 -14 5 -23 -20 -10 -15 8 -20 8 -16 1 4 -6 2 -11 -3 -11 -6 0 -11
7 -11 15 0 17 27 20 50 5z m410 -10 c0 -12 -8 -12 -35 0 -18 8 -17 9 8 9 15 1
27 -3 27 -9z m-50 -20 c0 -5 -4 -10 -10 -10 -5 0 -10 5 -10 10 0 6 5 10 10 10
6 0 10 -4 10 -10z m-580 -9 c0 -5 -7 -11 -14 -14 -10 -4 -13 -1 -9 9 6 15 23
19 23 5z m380 0 c0 -5 -9 -11 -20 -14 -11 -3 -18 -1 -15 3 3 5 -1 11 -7 13 -7
3 -1 6 15 6 15 1 27 -3 27 -8z m27 -13 c-3 -8 -6 -5 -6 6 -1 11 2 17 5 13 3
-3 4 -12 1 -19z m158 -8 c-3 -5 -12 -7 -20 -3 -21 7 -19 13 6 13 11 0 18 -4
14 -10z m-425 -10 c0 -5 -2 -10 -4 -10 -3 0 -8 5 -11 10 -3 6 -1 10 4 10 6 0
11 -4 11 -10z m215 -9 c3 -6 -6 -8 -22 -5 -37 7 -42 14 -10 14 14 0 28 -4 32
-9z m170 -1 c3 -5 1 -10 -4 -10 -6 0 -11 5 -11 10 0 6 2 10 4 10 3 0 8 -4 11
-10z m-218 -35 c0 -8 -4 -12 -9 -9 -5 3 -6 10 -3 15 9 13 12 11 12 -6z m183
-13 c0 -12 -3 -12 -15 -2 -8 7 -15 13 -15 15 0 1 7 2 15 2 8 0 15 -7 15 -15z
m-26 -33 c-16 -7 -17 -8 -1 -8 9 -1 17 -5 17 -11 0 -5 -7 -7 -15 -4 -9 4 -15
0 -16 -7 -1 -8 -4 -3 -8 11 -10 33 -6 39 21 32 21 -5 21 -6 2 -13z"/>
<path d="M13530 8260 c0 -5 4 -10 9 -10 6 0 13 5 16 10 3 6 -1 10 -9 10 -9 0
-16 -4 -16 -10z"/>
<path d="M12795 8130 c-3 -5 -1 -10 4 -10 6 0 11 5 11 10 0 6 -2 10 -4 10 -3
0 -8 -4 -11 -10z"/>
<path d="M12732 8103 c-6 -2 -9 -10 -6 -15 4 -7 2 -8 -4 -4 -7 4 -33 -5 -59
-20 -25 -16 -41 -30 -34 -32 8 -3 17 1 21 8 4 7 12 10 18 6 5 -3 12 1 16 9 3
9 18 15 35 15 20 0 30 6 34 20 5 20 2 22 -21 13z"/>
<path d="M12565 8013 c-17 -9 -24 -18 -18 -20 7 -3 25 5 39 16 32 25 21 27
-21 4z"/>
<path d="M12475 7960 c-3 -5 -1 -10 4 -10 6 0 11 5 11 10 0 6 -2 10 -4 10 -3
0 -8 -4 -11 -10z"/>
<path d="M16892 4378 c-186 -28 -326 -217 -309 -418 9 -107 40 -175 116 -251
83 -82 137 -104 261 -104 72 1 95 5 147 29 151 69 243 248 213 417 -38 221
-218 359 -428 327z"/>
<path d="M8254 4561 c5 -8 336 -3 345 5 2 2 -75 4 -173 4 -99 0 -175 -4 -172
-9z"/>
<path d="M8220 4519 c0 -3 25 -7 56 -8 34 -1 53 2 49 8 -6 11 -105 11 -105 0z"/>
<path d="M8170 4481 c0 -12 1 -12 122 -17 63 -2 88 1 91 10 4 10 -21 13 -104
15 -72 2 -109 -1 -109 -8z"/>
<path d="M8090 4429 c0 -5 5 -7 10 -4 6 3 10 8 10 11 0 2 -4 4 -10 4 -5 0 -10
-5 -10 -11z"/>
<path d="M8163 4403 c1 -21 7 -41 12 -45 17 -13 140 -9 153 4 9 9 12 -34 12
-196 l0 -207 168 3 c196 4 226 13 280 92 27 41 32 57 32 105 0 86 -39 158
-105 191 -43 22 -66 26 -190 31 -136 5 -137 5 -40 8 55 1 138 2 185 3 175 2
137 16 -47 17 -106 0 -193 5 -193 10 0 4 71 9 157 10 86 1 159 3 161 6 3 3
-128 5 -291 5 l-296 0 2 -37z"/>
<path d="M8845 4400 c3 -5 8 -10 11 -10 2 0 4 5 4 10 0 6 -5 10 -11 10 -5 0
-7 -4 -4 -10z"/>
<path d="M8743 4363 c9 -2 23 -2 30 0 6 3 -1 5 -18 5 -16 0 -22 -2 -12 -5z"/>
<path d="M8768 4338 c6 -6 18 -8 28 -6 14 3 12 5 -9 10 -19 3 -25 2 -19 -4z"/>
<path d="M8174 4325 c18 -14 18 -15 2 -15 -9 0 -14 -4 -11 -10 3 -5 26 -10 51
-10 28 0 43 -4 39 -10 -3 -6 -18 -8 -32 -6 -24 5 -63 -11 -63 -26 0 -4 10 -9
23 -11 22 -4 22 -4 -2 -6 -17 -1 -22 -5 -17 -17 4 -9 2 -22 -3 -28 -6 -7 -8
-22 -4 -34 5 -20 12 -22 82 -24 l76 -2 -80 -5 c-64 -5 -79 -9 -76 -21 2 -8 3
-25 3 -37 0 -18 7 -23 42 -26 l41 -4 -42 -1 c-24 -1 -43 -6 -43 -12 0 -5 6
-10 13 -10 8 0 8 -3 1 -8 -19 -13 -24 -40 -8 -46 9 -3 47 -6 85 -6 l69 0 0
195 0 195 -82 0 c-75 -1 -81 -2 -64 -15z m131 -45 c-3 -5 -13 -10 -21 -10 -8
0 -12 5 -9 10 3 6 13 10 21 10 8 0 12 -4 9 -10z m-7 -277 c-10 -2 -26 -2 -35
0 -10 3 -2 5 17 5 19 0 27 -2 18 -5z"/>
<path d="M8794 4302 c5 -8 66 -4 66 4 0 2 -16 4 -36 4 -19 0 -33 -4 -30 -8z"/>
<path d="M8085 4220 c-4 -6 3 -10 14 -10 25 0 27 6 6 13 -8 4 -17 2 -20 -3z"/>
<path d="M8840 4154 c0 -14 4 -23 9 -20 5 3 7 15 4 26 -7 28 -13 25 -13 -6z"/>
<path d="M8088 4103 c6 -2 18 -2 25 0 6 3 1 5 -13 5 -14 0 -19 -2 -12 -5z"/>
<path d="M8825 4082 c-9 -41 -59 -97 -108 -121 -41 -20 -60 -21 -303 -21 -149
0 -253 -4 -245 -9 10 -7 11 -9 0 -13 -20 -7 -19 -48 2 -48 12 0 16 -5 13 -15
-4 -10 0 -15 11 -15 9 0 13 5 10 10 -3 6 0 12 7 14 11 4 312 13 533 17 33 0
54 3 47 6 -6 2 -10 9 -6 14 3 5 -16 9 -43 10 -26 1 -59 5 -73 9 -25 8 -25 8 5
10 17 1 55 2 85 2 l55 0 -50 7 c-73 9 -33 21 78 23 51 1 75 3 54 5 -20 2 -35
8 -32 14 8 12 -2 11 -27 -2 -12 -6 -18 -7 -14 -1 3 5 0 12 -8 15 -24 9 28 101
62 108 24 6 23 7 -10 8 -32 1 -37 -2 -43 -27z m-517 -157 c-9 -9 -77 -12 -90
-3 -8 4 10 8 41 8 30 0 52 -2 49 -5z m372 -19 c0 -8 -61 -12 -66 -4 -3 4 11 8
30 8 20 0 36 -2 36 -4z m-183 -12 c-3 -3 -12 -4 -19 -1 -8 3 -5 6 6 6 11 1 17
-2 13 -5z m270 0 c-3 -3 -12 -4 -19 -1 -8 3 -5 6 6 6 11 1 17 -2 13 -5z"/>
<path d="M8948 3963 c7 -3 16 -2 19 1 4 3 -2 6 -13 5 -11 0 -14 -3 -6 -6z"/>
<path d="M8810 3910 c0 -5 5 -10 11 -10 5 0 7 5 4 10 -3 6 -8 10 -11 10 -2 0
-4 -4 -4 -10z"/>
<path d="M8098 3903 c7 -3 16 -2 19 1 4 3 -2 6 -13 5 -11 0 -14 -3 -6 -6z"/>
<path d="M8088 3873 c7 -3 16 -2 19 1 4 3 -2 6 -13 5 -11 0 -14 -3 -6 -6z"/>
<path d="M8225 3850 c-4 -7 3 -8 22 -4 38 9 42 14 10 14 -14 0 -29 -5 -32 -10z"/>
<path d="M8086 3821 c-4 -5 -2 -12 3 -15 5 -4 12 -2 15 3 4 5 2 12 -3 15 -5 4
-12 2 -15 -3z"/>
<path d="M8082 3750 c1 -22 6 -40 10 -40 7 0 10 15 7 36 0 4 5 11 13 15 11 7
10 11 -2 19 -26 17 -31 11 -28 -30z"/>
<path d="M8080 3645 c0 -46 9 -56 29 -31 9 11 9 15 -1 18 -9 3 -8 9 5 23 15
14 16 20 5 26 -28 18 -38 9 -38 -36z"/>
<path d="M8082 3557 c3 -32 7 -37 31 -37 8 0 7 4 -3 10 -13 9 -13 11 0 20 13
9 13 10 0 10 -12 0 -12 2 -2 9 10 6 8 10 -8 14 -19 5 -21 2 -18 -26z"/>
<path d="M9713 4313 c-23 -65 -98 -255 -136 -345 l-46 -108 196 0 c182 0 195
1 189 18 -54 141 -183 452 -189 452 -4 0 -10 -8 -14 -17z"/>
<path d="M9286 3853 c-6 -14 -5 -15 5 -6 7 7 10 15 7 18 -3 3 -9 -2 -12 -12z"/>
<path d="M9146 3523 c-6 -14 -5 -15 5 -6 7 7 10 15 7 18 -3 3 -9 -2 -12 -12z"/>
<path d="M19788 4563 c6 -2 18 -2 25 0 6 3 1 5 -13 5 -14 0 -19 -2 -12 -5z"/>
<path d="M19908 4563 c12 -2 32 -2 45 0 12 2 2 4 -23 4 -25 0 -35 -2 -22 -4z"/>
<path d="M19988 4563 c7 -3 16 -2 19 1 4 3 -2 6 -13 5 -11 0 -14 -3 -6 -6z"/>
<path d="M19524 4289 c-19 -22 -19 -22 4 -8 12 8 22 17 22 21 0 12 -6 9 -26
-13z"/>
<path d="M19765 4290 c3 -5 8 -10 11 -10 2 0 4 5 4 10 0 6 -5 10 -11 10 -5 0
-7 -4 -4 -10z"/>
<path d="M19668 4213 c7 -3 16 -2 19 1 4 3 -2 6 -13 5 -11 0 -14 -3 -6 -6z"/>
<path d="M19365 4110 c-3 -5 -1 -10 4 -10 6 0 11 5 11 10 0 6 -2 10 -4 10 -3
0 -8 -4 -11 -10z"/>
<path d="M19068 4103 c7 -3 16 -2 19 1 4 3 -2 6 -13 5 -11 0 -14 -3 -6 -6z"/>
<path d="M19113 4103 c9 -2 25 -2 35 0 9 3 1 5 -18 5 -19 0 -27 -2 -17 -5z"/>
<path d="M19652 3943 c47 -54 89 -126 78 -133 -8 -5 -4 -9 12 -14 19 -5 20 -8
8 -16 -12 -8 -11 -10 8 -10 12 0 22 -4 22 -10 0 -5 -52 -11 -122 -13 l-123 -3
133 -2 c80 -1 132 -6 132 -12 0 -5 -3 -9 -7 -9 -31 5 -223 -3 -223 -8 0 -5 15
-25 33 -46 29 -34 35 -36 62 -28 29 9 29 9 5 11 -14 1 -29 2 -33 1 -5 -1 -6 2
-4 6 7 11 204 16 219 6 8 -5 -8 -10 -42 -14 l-55 -6 57 -1 c64 -2 88 -9 88
-26 0 -7 -14 -10 -39 -8 -23 2 -42 -1 -46 -8 -5 -8 0 -11 16 -10 38 3 49 1 49
-11 0 -5 -4 -7 -10 -4 -5 3 -10 1 -10 -4 0 -6 18 -11 40 -11 54 0 51 -20 -2
-21 -33 -2 -36 -3 -13 -6 17 -2 41 -6 54 -9 38 -8 5 -24 -41 -19 -21 2 -38 -1
-38 -6 0 -5 27 -9 61 -9 40 0 58 -4 54 -11 -4 -6 -21 -10 -39 -9 -85 5 -177
-1 -171 -10 4 -6 11 -7 17 -4 7 4 8 2 4 -4 -4 -6 -2 -20 3 -30 9 -17 24 -19
151 -20 l141 -1 -64 82 c-35 45 -101 132 -147 192 -126 165 -222 285 -228 285
-3 0 2 -8 10 -17z m54 -253 c25 0 44 5 46 12 3 9 9 8 22 -5 17 -16 13 -17 -76
-16 -51 1 -85 3 -75 6 9 2 17 10 17 16 0 8 4 7 12 -1 7 -7 31 -12 54 -12z
m219 -110 c3 -6 -1 -7 -9 -4 -18 7 -21 14 -7 14 6 0 13 -4 16 -10z"/>
<path d="M19365 3869 c-27 -6 -28 -7 -5 -8 18 -1 21 -4 11 -10 -8 -5 -9 -11
-3 -15 11 -7 36 19 30 31 -1 5 -16 6 -33 2z"/>
<path d="M19335 3812 c-5 -4 -11 -14 -13 -22 -3 -11 2 -10 17 4 12 11 21 21
21 23 0 5 -15 3 -25 -5z"/>
<path d="M19253 3743 c9 -2 25 -2 35 0 9 3 1 5 -18 5 -19 0 -27 -2 -17 -5z"/>
<path d="M19235 3640 c3 -5 8 -10 11 -10 2 0 4 5 4 10 0 6 -5 10 -11 10 -5 0
-7 -4 -4 -10z"/>
<path d="M19242 3585 c0 -16 2 -22 5 -12 2 9 2 23 0 30 -3 6 -5 -1 -5 -18z"/>
<path d="M19650 3606 c0 -2 7 -9 15 -16 13 -11 14 -10 9 4 -5 14 -24 23 -24
12z"/>
<path d="M19088 3428 c4 -4 21 -3 37 1 30 9 30 9 -7 8 -20 -1 -34 -5 -30 -9z"/>
<path d="M19165 3431 c-8 -14 10 -22 30 -15 13 5 14 8 3 15 -17 11 -26 11 -33
0z"/>
<path d="M8218 2969 c-67 -18 -114 -74 -119 -140 -5 -73 1 -98 33 -135 40 -45
82 -64 144 -64 43 0 114 24 114 39 0 23 -24 27 -58 10 -45 -24 -77 -24 -121
-1 -100 51 -93 211 11 258 39 18 109 14 135 -7 13 -11 33 -4 33 11 0 11 -88
39 -120 38 -14 -1 -37 -4 -52 -9z"/>
<path d="M8587 2974 c-9 -3 -14 -10 -11 -16 4 -7 2 -8 -4 -4 -18 11 -37 -4
-21 -16 10 -6 7 -8 -11 -6 -21 2 -29 -5 -47 -42 -46 -90 -20 -188 62 -236 89
-52 214 -16 251 72 22 53 18 135 -8 174 -37 54 -71 73 -135 76 -32 2 -66 0
-76 -2z m130 -50 c79 -50 81 -182 5 -239 -35 -26 -109 -26 -145 1 -44 32 -60
73 -55 137 3 42 11 64 28 82 42 44 114 52 167 19z"/>
<path d="M8584 2911 c-67 -41 -72 -142 -10 -198 81 -74 186 -16 186 103 0 39
-5 51 -34 80 -40 40 -92 46 -142 15z"/>
<path d="M8930 2805 l-1 -175 26 0 25 0 0 114 c0 63 4 117 9 121 5 3 51 -48
101 -114 72 -94 95 -118 111 -114 15 4 19 14 19 44 0 40 -5 45 -29 30 -19 -12
-54 6 -45 21 5 7 2 8 -6 3 -10 -6 -12 -4 -7 8 3 10 2 17 -3 17 -6 0 -9 3 -7 8
1 4 -31 53 -72 110 -56 77 -80 102 -97 102 -22 0 -22 -1 -24 -175z m277 -114
c0 -11 -5 -18 -9 -15 -4 3 -5 11 -1 19 7 21 12 19 10 -4z"/>
<path d="M9170 2970 c0 -5 11 -10 25 -10 14 0 25 5 25 10 0 6 -11 10 -25 10
-14 0 -25 -4 -25 -10z"/>
<path d="M9176 2931 c-2 -9 -2 -32 -1 -51 2 -19 3 -57 4 -85 1 -35 4 -46 10
-35 6 8 7 18 5 22 -3 4 0 8 7 8 6 0 9 -8 6 -20 -3 -11 -1 -23 4 -26 5 -3 9 37
9 94 0 91 -2 100 -20 105 -13 3 -21 -1 -24 -12z"/>
<path d="M9310 2965 c0 -10 15 -15 58 -17 l57 -3 3 -152 3 -153 25 0 26 0 -6
86 c-6 95 -16 126 -16 50 0 -26 -4 -45 -9 -41 -12 7 -10 205 2 205 5 0 7 -8 6
-17 -3 -37 4 -46 10 -13 6 35 6 35 64 38 42 2 57 7 57 17 0 12 -24 15 -140 15
-116 0 -140 -3 -140 -15z"/>
<path d="M9457 2850 c-3 -11 -1 -20 4 -20 5 0 9 9 9 20 0 11 -2 20 -4 20 -2 0
-6 -9 -9 -20z"/>
<path d="M9680 2970 c0 -5 14 -7 30 -5 17 2 30 0 30 -5 0 -6 23 -10 50 -10 36
0 50 4 50 14 0 11 -17 14 -80 14 -44 0 -80 -4 -80 -8z"/>
<path d="M9860 2950 c-13 -8 -12 -10 3 -10 9 0 17 5 17 10 0 12 -1 12 -20 0z"/>
<path d="M9890 2929 c-12 -8 -11 -9 6 -4 26 7 39 -18 21 -37 -7 -7 -13 -26
-15 -43 -5 -47 -33 -68 -96 -73 -59 -5 -92 9 -82 34 4 9 -2 13 -17 12 -22 -2
-23 -6 -26 -90 -2 -87 -2 -88 22 -88 23 0 24 3 22 50 l-2 50 56 0 56 0 30 -50
c22 -37 35 -50 53 -50 23 0 23 0 -10 48 -36 52 -45 84 -20 74 12 -4 14 -1 9
13 -6 15 -5 16 8 5 13 -11 17 -7 30 23 18 44 19 77 3 112 -12 27 -24 31 -48
14z"/>
<path d="M9740 2860 l0 -70 45 0 c55 0 92 16 99 44 18 65 -11 96 -89 96 l-55
0 0 -70z"/>
<path d="M9900 2899 c0 -5 5 -7 10 -4 6 3 10 8 10 11 0 2 -4 4 -10 4 -5 0 -10
-5 -10 -11z"/>
<path d="M9690 2842 c0 -5 7 -9 15 -9 8 0 15 4 15 9 0 4 -7 8 -15 8 -8 0 -15
-4 -15 -8z"/>
<path d="M10173 2966 c3 -10 -58 -46 -80 -46 -11 0 -14 -5 -13 -25 1 -3 -6
-13 -15 -21 -22 -22 -19 -106 5 -154 24 -47 60 -76 72 -57 5 9 8 7 8 -4 0 -34
99 -35 163 -3 27 14 37 34 16 34 -5 0 -7 -5 -3 -12 5 -8 0 -9 -14 -6 -12 4
-20 3 -17 -2 3 -4 -2 -10 -10 -14 -8 -3 -15 -2 -15 2 0 4 -25 7 -55 6 -30 -1
-55 3 -55 7 0 5 -10 9 -22 10 -13 0 -17 3 -10 6 10 4 9 9 -4 24 -9 10 -20 16
-25 14 -4 -3 -11 0 -15 6 -4 7 -3 9 3 6 7 -4 9 17 5 61 -4 66 -4 69 28 101 54
53 123 69 157 35 8 -8 23 -14 34 -14 11 0 17 -4 14 -10 -3 -5 1 -10 10 -10 9
0 13 -4 10 -10 -3 -6 1 -7 9 -4 20 8 21 7 -13 43 -18 20 -39 31 -56 31 -14 0
-24 4 -21 9 3 5 -17 9 -44 8 -31 0 -49 -4 -47 -11z m137 -26 c0 -5 -2 -10 -4
-10 -3 0 -8 5 -11 10 -3 6 -1 10 4 10 6 0 11 -4 11 -10z"/>
<path d="M10158 2913 c-37 -23 -53 -58 -51 -109 3 -93 86 -149 162 -110 37 20
51 39 61 81 24 108 -82 193 -172 138z"/>
<path d="M11030 2805 l0 -125 43 0 c83 0 152 58 152 129 0 80 -48 121 -139
121 l-56 0 0 -125z"/>
<path d="M14074 2884 c-4 -10 -18 -43 -30 -71 l-23 -53 60 0 c32 0 59 3 59 8
0 13 -41 117 -50 126 -6 6 -12 2 -16 -10z"/>
<path d="M14419 2923 c0 -5 -2 -21 -5 -38 -2 -16 -2 -45 1 -62 6 -32 7 -33 55
-33 59 0 90 24 90 70 0 46 -31 70 -90 70 -27 0 -50 -3 -51 -7z"/>
<path d="M15002 2914 c-92 -64 -51 -232 58 -234 57 0 120 68 120 131 0 35 -31
89 -61 104 -37 19 -89 19 -117 -1z"/>
<path d="M16390 2860 l0 -70 50 0 c41 0 56 5 75 25 30 30 31 54 4 89 -18 22
-28 26 -75 26 l-54 0 0 -70z"/>
<path d="M16820 2854 c-11 -25 -23 -57 -26 -70 -6 -23 -5 -24 55 -24 l61 0
-21 51 c-23 61 -38 89 -45 89 -2 0 -14 -21 -24 -46z"/>
<path d="M17570 2836 c-16 -37 -30 -70 -30 -72 0 -2 27 -4 60 -4 33 0 60 4 60
9 0 12 -42 114 -51 125 -5 5 -22 -21 -39 -58z"/>
<path d="M17550 2730 c0 -5 5 -10 10 -10 6 0 10 5 10 10 0 6 -4 10 -10 10 -5
0 -10 -4 -10 -10z"/>
<path d="M17585 2731 c7 -12 105 -11 105 1 0 4 -25 8 -56 8 -31 0 -53 -4 -49
-9z"/>
<path d="M17725 2690 c-9 -14 13 -50 31 -50 12 0 12 4 4 20 -6 11 -15 20 -21
20 -6 0 -7 5 -4 10 3 6 4 10 1 10 -3 0 -8 -4 -11 -10z"/>
<path d="M17879 2971 c8 -5 25 -7 38 -5 12 2 23 1 23 -3 0 -5 25 -9 56 -10 38
-1 63 -8 77 -20 22 -19 15 -3 -12 29 -13 15 -31 18 -106 18 -56 0 -85 -4 -76
-9z"/>
<path d="M18097 2941 c15 -16 30 -24 32 -18 2 6 -6 19 -19 29 -35 28 -44 21
-13 -11z"/>
<path d="M17943 2933 c-8 -3 -13 -23 -13 -49 l0 -44 65 0 c54 0 66 3 75 20 15
28 3 59 -27 71 -26 9 -79 11 -100 2z"/>
<path d="M17930 2730 l0 -50 61 0 c76 0 99 12 99 50 0 38 -23 50 -99 50 l-61
0 0 -50z"/>
<path d="M17871 2658 c-1 -16 10 -18 102 -17 79 0 96 3 77 10 -14 6 -58 9 -97
7 -44 -2 -75 1 -77 7 -2 5 -5 2 -5 -7z"/>
<path d="M18260 2976 c0 -10 28 -13 41 -5 10 6 7 9 -13 9 -16 0 -28 -2 -28 -4z"/>
<path d="M18300 2671 c0 -11 -8 -22 -17 -24 -14 -4 -12 -5 5 -6 17 -1 22 4 22
24 0 14 -2 25 -5 25 -3 0 -5 -9 -5 -19z"/>
<path d="M18440 2970 c0 -5 9 -10 20 -10 11 0 20 5 20 10 0 6 -9 10 -20 10
-11 0 -20 -4 -20 -10z"/>
<path d="M18441 2763 l-1 -123 115 0 c87 0 114 3 113 13 -2 8 -32 14 -93 17
l-90 5 -6 105 c-5 98 -5 101 -8 35 l-4 -70 -12 70 -13 70 -1 -122z"/>
<path d="M18763 2973 c9 -2 23 -2 30 0 6 3 -1 5 -18 5 -16 0 -22 -2 -12 -5z"/>
<path d="M18786 2843 c-3 -21 -7 -58 -7 -83 l-2 -45 -7 45 c-6 39 -7 34 -8
-36 -2 -74 0 -82 18 -87 19 -5 20 0 20 119 0 68 -2 124 -4 124 -2 0 -6 -17
-10 -37z"/>
<path d="M18928 2805 l3 -178 90 6 c165 12 222 58 223 178 1 54 -3 73 -20 96
-40 53 -79 67 -194 71 l-105 4 3 -177z m32 135 c0 -5 -2 -10 -4 -10 -3 0 -8 5
-11 10 -3 6 -1 10 4 10 6 0 11 -4 11 -10z m139 -1 c71 -15 101 -52 101 -124 0
-68 -14 -100 -56 -126 -34 -21 -138 -29 -154 -13 -11 13 -20 214 -10 240 5 12
19 24 32 27 13 2 26 5 30 6 4 0 30 -4 57 -10z m96 -8 c3 -5 1 -12 -5 -16 -5
-3 -10 1 -10 9 0 18 6 21 15 7z"/>
<path d="M18992 2808 l3 -123 58 1 c72 2 106 24 126 82 34 94 -22 162 -131
162 l-59 0 3 -122z"/>
<path d="M19750 2805 l0 -178 100 6 c167 9 215 47 215 172 0 59 -4 79 -21 102
-35 48 -87 67 -196 71 l-98 4 0 -177z m219 121 c15 -8 31 -13 33 -11 3 3 15
-6 27 -19 14 -15 19 -26 12 -31 -6 -3 -11 1 -11 9 0 9 -4 16 -9 16 -4 0 -4
-17 2 -38 15 -55 1 -110 -37 -148 -25 -25 -44 -34 -88 -39 -97 -12 -93 -19
-96 137 l-3 137 28 4 c46 6 111 -1 142 -17z"/>
<path d="M19815 2920 c-4 -6 -3 -62 1 -125 l7 -115 44 0 c94 0 143 48 143 138
0 53 -21 85 -67 103 -33 12 -120 12 -128 -1z"/>
<path d="M19469 2973 c-9 -2 -41 -64 -78 -156 -80 -195 -78 -186 -50 -184 16
1 27 12 37 39 13 32 20 38 46 38 17 1 59 3 93 5 l61 5 17 -42 c12 -34 21 -43
41 -44 16 -1 23 2 20 10 -3 6 -36 84 -73 174 -68 162 -71 167 -114 155z m60
-132 c17 -44 31 -85 31 -90 0 -7 -29 -11 -75 -11 -45 0 -75 4 -75 10 0 26 63
170 74 170 7 0 27 -36 45 -79z"/>
<path d="M19452 2836 l-31 -76 60 0 c32 0 59 4 59 9 0 13 -42 124 -50 134 -4
4 -21 -26 -38 -67z"/>
</g>
</svg>
